<?xml version="1.0" encoding="UTF-8" standalone="no"?>
<!-- Created with Inkscape (http://www.inkscape.org/) -->

<svg
   width="200mm"
   height="200mm"
   viewBox="0 0 200 200"
   version="1.1"
   id="svg1"
   xml:space="preserve"
   inkscape:version="1.3.2 (091e20e, 2023-11-25, custom)"
   sodipodi:docname="black-and-white-coming-soon.svg"
   inkscape:export-filename="profile.png"
   inkscape:export-xdpi="96"
   inkscape:export-ydpi="96"
   xmlns:inkscape="http://www.inkscape.org/namespaces/inkscape"
   xmlns:sodipodi="http://sodipodi.sourceforge.net/DTD/sodipodi-0.dtd"
   xmlns="http://www.w3.org/2000/svg"
   xmlns:svg="http://www.w3.org/2000/svg"><sodipodi:namedview
     id="namedview1"
     pagecolor="#ffffff"
     bordercolor="#000000"
     borderopacity="0.25"
     inkscape:showpageshadow="2"
     inkscape:pageopacity="0.0"
     inkscape:pagecheckerboard="0"
     inkscape:deskcolor="#d1d1d1"
     inkscape:document-units="mm"
     inkscape:zoom="0.72426347"
     inkscape:cx="345.17825"
     inkscape:cy="460.46779"
     inkscape:window-width="1920"
     inkscape:window-height="1009"
     inkscape:window-x="-8"
     inkscape:window-y="-8"
     inkscape:window-maximized="1"
     inkscape:current-layer="layer1" /><defs
     id="defs1"><rect
       x="234.72121"
       y="238.86335"
       width="201.5841"
       height="191.91911"
       id="rect2" /><rect
       x="234.72121"
       y="238.86336"
       width="201.58411"
       height="191.91911"
       id="rect2-0" /><rect
       x="234.72121"
       y="238.86336"
       width="201.58411"
       height="191.91911"
       id="rect2-1" /><rect
       x="234.72121"
       y="238.86336"
       width="201.58411"
       height="191.91911"
       id="rect2-0-6" /><rect
       x="234.72121"
       y="238.86336"
       width="201.58411"
       height="191.91911"
       id="rect2-1-3" /><radialGradient
       id="SVGID_1_"
       cx="250.4449"
       cy="365.93329"
       r="99.1278"
       gradientUnits="userSpaceOnUse">
				<stop
   offset="0"
   style="stop-color:#ffffff"
   id="stop14" />
				<stop
   offset="0.1164"
   style="stop-color:#ffffff"
   id="stop15" />
				<stop
   offset="0.3475"
   style="stop-color:#ffffff"
   id="stop16" />
				<stop
   offset="0.6716"
   style="stop-color:#000000"
   id="stop17" />
				<stop
   offset="1"
   style="stop-color:#000000"
   id="stop18" />
			</radialGradient><radialGradient
       id="SVGID_00000066476981634364648120000007539139795049395343_"
       cx="400.55389"
       cy="340.24371"
       r="70.4505"
       gradientUnits="userSpaceOnUse">
					<stop
   offset="0"
   style="stop-color:#ffffff"
   id="stop37" />
					<stop
   offset="0.1164"
   style="stop-color:#ffffff"
   id="stop38" />
					<stop
   offset="0.3475"
   style="stop-color:#ffffff"
   id="stop39" />
					<stop
   offset="0.6716"
   style="stop-color:#ffffff"
   id="stop40" />
					<stop
   offset="1"
   style="stop-color:#000000"
   id="stop41" />
				</radialGradient></defs><g
     inkscape:label="Calque 1"
     inkscape:groupmode="layer"
     id="layer1"><rect
       style="fill:#bebebe;fill-opacity:1;stroke:none;stroke-width:0.392991;stroke-miterlimit:7.1;paint-order:markers fill stroke"
       id="rect1"
       width="200"
       height="200"
       x="0"
       y="0"
       ry="0.15268621"
       sodipodi:insensitive="true" /><text
       xml:space="preserve"
       transform="matrix(0.56727815,-0.1825883,0.17816839,0.58135091,-201.95217,-58.505023)"
       id="text1-7"
       style="font-size:48px;font-family:'Intro Rust';-inkscape-font-specification:'Intro Rust';text-align:center;letter-spacing:0px;word-spacing:0px;white-space:pre;shape-inside:url(#rect2-1);display:inline;fill:#959595;fill-opacity:1;stroke:none;stroke-width:1.51181;stroke-miterlimit:7.1;paint-order:markers fill stroke"><tspan
         x="322.31271"
         y="279.50064"
         id="tspan1">?</tspan></text><text
       xml:space="preserve"
       transform="matrix(0.56727815,-0.1825883,0.17816839,0.58135091,-57.156764,46.709655)"
       id="text1-7-5"
       style="font-size:48px;font-family:'Intro Rust';-inkscape-font-specification:'Intro Rust';text-align:center;letter-spacing:0px;word-spacing:0px;white-space:pre;shape-inside:url(#rect2-1-3);display:inline;fill:#959595;fill-opacity:1;stroke:none;stroke-width:1.51181;stroke-miterlimit:7.1;paint-order:markers fill stroke"><tspan
         x="322.31271"
         y="279.50064"
         id="tspan2">?</tspan></text><text
       xml:space="preserve"
       transform="matrix(0.61905755,0.29794244,-0.29794244,0.61905755,-21.124428,-231.84361)"
       id="text1-8"
       style="font-size:48px;font-family:'Intro Rust';-inkscape-font-specification:'Intro Rust';text-align:center;letter-spacing:0px;word-spacing:0px;white-space:pre;shape-inside:url(#rect2-0);display:inline;fill:#959595;fill-opacity:1;stroke:none;stroke-width:1.51181;stroke-miterlimit:7.1;paint-order:markers fill stroke"><tspan
         x="322.31271"
         y="279.50064"
         id="tspan3">?</tspan></text><text
       xml:space="preserve"
       transform="matrix(0.46260178,-0.50793852,0.50793852,0.46260178,-249.27035,220.24722)"
       id="text1-8-7"
       style="font-size:48px;font-family:'Intro Rust';-inkscape-font-specification:'Intro Rust';text-align:center;letter-spacing:0px;word-spacing:0px;white-space:pre;shape-inside:url(#rect2-0-6);display:inline;fill:#959595;fill-opacity:1;stroke:none;stroke-width:1.51181;stroke-miterlimit:7.1;paint-order:markers fill stroke"><tspan
         x="322.31271"
         y="279.50064"
         id="tspan4">?</tspan></text><path
       d="m 30.112565,116.6007 c -0.476125,-0.28827 -1.979476,-1.55583 -0.733941,-2.76933 0.499035,-0.48617 1.236603,-0.46594 1.70533,-0.18546 0.480942,0.28749 1.656442,1.78644 0.2865,3.19226 -0.58013,0.59545 -1.83903,0.95841 -2.63626,0.70204 -2.705358,-0.86964 -1.968305,-3.53188 -1.900068,-3.89818 0.253222,-1.35579 2.290555,-4.60653 -0.711327,-8.21085 -0.273344,-0.32828 -0.647448,-0.64719 -1.081293,-0.72003 -0.769623,-0.12937 -1.092126,0.59205 -1.179302,1.20916 -0.10759,0.76052 0.387181,2.02293 0.79106,2.65198 1.393782,2.17041 3.404177,4.01206 3.520074,4.14776 0.199007,0.23269 2.146512,2.22391 2.288516,2.35871 2.261576,2.1477 2.797344,3.07447 3.152161,3.97736 0.414762,1.0555 -0.537306,2.53125 -1.712726,1.9646 0.241278,-0.10137 0.660817,-0.71011 0.269733,-1.28119 -0.506616,-0.73938 -1.277849,-0.51443 -1.654132,0.0282 -0.357653,0.51563 -0.07943,1.28774 0.562014,1.664 0.72872,0.42733 2.113879,0.15246 2.716729,-0.71894 1.328951,-1.92064 -2.616902,-5.39643 -3.269491,-6.01801 -0.731421,-0.69651 -4.77605,-4.60559 -5.668468,-6.62093 -0.449336,-1.0146 -0.259573,-2.33607 0.494157,-2.16561 0.815721,0.18432 1.224363,1.17279 1.332938,1.539 0.349708,1.17883 0.102263,2.40477 -0.270207,3.5367 -0.361471,1.0987 -0.76281,2.42936 -0.733444,3.60074 0.03231,1.28017 1.031055,2.8408 2.295171,3.30369 0.430951,0.15783 1.439589,0.42233 2.511067,-0.002 1.603231,-0.63524 3.279766,-2.51069 1.878082,-4.62365 -1.232786,-1.85821 -3.773437,-1.09159 -4.360994,0.46427 -0.133421,0.35344 -0.188535,0.76732 -0.123762,1.1588 0.172339,1.04083 1.213673,1.971 2.231883,1.71505 z"
       id="path1-4-1"
       style="stroke-width:0.142842;fill:#959595;fill-opacity:1" /><path
       d="m 113.40535,78.387789 -0.3226,-0.08512 -2.28934,8.676393 c -0.086,-0.157322 -0.21757,-0.299578 -0.37492,-0.409506 -0.22042,-0.160227 -0.48054,-0.27155 -0.74892,-0.346469 -0.53972,-0.147891 -1.11626,-0.13555 -1.64013,-0.0075 -0.5249,0.128845 -1.00211,0.400525 -1.33292,0.773772 -0.32387,0.363584 -0.55998,0.842542 -0.39435,1.315038 0.17183,0.470848 0.69503,0.774722 1.21392,0.925866 0.53134,0.155797 1.1091,0.157468 1.63309,0.03003 0.52223,-0.130099 1.01027,-0.380587 1.35738,-0.74926 0.17219,-0.18278 0.31059,-0.393083 0.38816,-0.623818 0.0101,-0.02661 0.0135,-0.055 0.0208,-0.08264 l 0.002,0.01125 2.48766,-9.428014 z"
       id="path12-2-7"
       style="stroke-width:0.264583;fill:#959595;fill-opacity:1" /><path
       d="m 184.08412,75.956514 -0.3226,-0.08512 -2.28934,8.676393 c -0.086,-0.157322 -0.21757,-0.299578 -0.37492,-0.409506 -0.22042,-0.160227 -0.48054,-0.27155 -0.74892,-0.346469 -0.53972,-0.147891 -1.11626,-0.13555 -1.64013,-0.0075 -0.5249,0.128845 -1.00211,0.400525 -1.33292,0.773772 -0.32387,0.363584 -0.55998,0.842542 -0.39435,1.315038 0.17183,0.470848 0.69503,0.774722 1.21392,0.925866 0.53134,0.155797 1.1091,0.157468 1.63309,0.03003 0.52223,-0.130099 1.01027,-0.380587 1.35738,-0.74926 0.17219,-0.18278 0.31059,-0.393083 0.38816,-0.623818 0.0101,-0.02661 0.0135,-0.055 0.0208,-0.08264 l 0.002,0.01125 2.48766,-9.428014 z"
       id="path12-2-7-7"
       style="stroke-width:0.264583;fill:#959595;fill-opacity:1" /><path
       d="m 94.583739,172.52708 -0.29424,0.15729 4.23045,7.91355 c -0.1701,-0.0567 -0.36332,-0.0713 -0.55341,-0.0447 -0.27054,0.0327 -0.53685,0.12829 -0.78442,0.25614 -0.49586,0.2594 -0.90988,0.66071 -1.20641,1.11114 -0.29673,0.45175 -0.46129,0.97564 -0.44946,1.47424 0.0103,0.48682 0.16349,0.99837 0.60649,1.23167 0.44643,0.22788 1.03653,0.0942 1.51949,-0.14834 0.49525,-0.24764 0.91954,-0.63979 1.21657,-1.08989 0.29391,-0.45084 0.48083,-0.96659 0.48406,-1.47294 0.002,-0.25111 -0.0401,-0.49937 -0.14042,-0.72117 -0.0107,-0.0264 -0.0276,-0.0495 -0.041,-0.0747 l 0.009,0.007 -4.59692,-8.59909 z"
       id="path12-2-4"
       style="fill:#959595;fill-opacity:1;stroke-width:0.264583" /><path
       d="m 172.8094,32.080414 1.97366,-7.35421 0.0183,2.34e-4 0.52243,-1.949727 -10.31581,-0.14273 -0.11953,-0.02623 -2.26111,8.442432 0.01,0.05459 c -0.0786,-0.141298 -0.19221,-0.271184 -0.33,-0.374394 -0.20634,-0.160198 -0.45261,-0.274667 -0.70804,-0.354888 -0.51392,-0.158245 -1.0677,-0.163651 -1.57466,-0.05653 -0.50731,0.108402 -0.97368,0.354322 -1.30269,0.703061 -0.32153,0.339237 -0.56275,0.791757 -0.41779,1.250515 0.15064,0.456992 0.64395,0.764754 1.13742,0.925739 0.50553,0.165044 1.05979,0.183994 1.56654,0.07763 0.50527,-0.108949 0.98144,-0.33526 1.32569,-0.678544 0.17109,-0.170279 0.31009,-0.368054 0.39118,-0.586826 0.0406,-0.09924 0.0581,-0.205211 0.0605,-0.310842 l 1.90895,-7.1127 9.75341,0.134747 -1.79695,6.710193 0.009,0.05459 c -0.0784,-0.140973 -0.19221,-0.271184 -0.32975,-0.374326 -0.20627,-0.160454 -0.45278,-0.274988 -0.70803,-0.354887 -0.51385,-0.158506 -1.06789,-0.163975 -1.57485,-0.05685 -0.50731,0.108402 -0.97373,0.35458 -1.30269,0.703061 -0.32152,0.33924 -0.56275,0.791758 -0.41801,1.250182 0.15076,0.457571 0.64413,0.765077 1.1376,0.926062 0.50553,0.165044 1.05979,0.183994 1.56654,0.07763 0.50534,-0.109204 0.98144,-0.33526 1.3257,-0.678544 0.17108,-0.170279 0.31034,-0.367984 0.39117,-0.586826 0.0402,-0.09988 0.0582,-0.205722 0.0606,-0.311917 z"
       id="path21-1-4"
       style="stroke-width:0.264583;fill:#959595;fill-opacity:1" /><path
       d="m 144.23729,176.38978 c 1.3835,0.33099 2.45374,2.03438 2.25292,2.88978 -0.23257,0.99166 -0.9054,1.48034 -1.12659,2.10608 -0.65829,1.8632 1.46552,3.03054 1.56712,3.07922 -0.72495,0.13282 -1.51659,0.15161 -1.8542,0.97367 -0.30638,0.74374 -0.16801,1.39964 -0.0497,2.14603 -0.68342,-0.31829 -1.53405,-0.8456 -1.57956,-1.94389 -0.0521,-1.23217 0.64347,-1.35705 1.33297,-1.85473 -0.76861,-0.091 -1.40255,-1.10675 -1.59835,-1.88198 -0.20505,-0.8128 0.10372,-1.48537 0.508,-2.17779 0.58923,-1.00885 0.98822,-2.03782 0.54716,-3.25437 v -0.082 z"
       id="path30-4-1"
       style="fill:#959595;fill-opacity:1;stroke-width:0.264583" /><g
       id="g37"
       transform="matrix(0.34432655,0,0,0.34432655,-18.607681,14.266894)"
       style="opacity:0.319716">
			<g
   id="g8">
				<g
   id="g3">
					<rect
   x="234.464"
   y="95.301003"
   style="fill:#000000"
   width="3.5109999"
   height="2.8640001"
   id="rect2-07" />
					<rect
   x="230.03"
   y="93.684998"
   style="fill:#000000"
   width="5.6350002"
   height="6.0970001"
   id="rect3" />
				</g>
				<g
   id="g5">
					<rect
   x="234.464"
   y="107.016"
   style="fill:#000000"
   width="3.5109999"
   height="2.8629999"
   id="rect4" />
					<rect
   x="230.03"
   y="105.398"
   style="fill:#000000"
   width="5.6350002"
   height="6.0970001"
   id="rect5" />
				</g>
				<g
   id="g7">
					<rect
   x="234.464"
   y="118.729"
   style="fill:#000000"
   width="3.5109999"
   height="2.8640001"
   id="rect6" />
					<rect
   x="230.03"
   y="117.112"
   style="fill:#000000"
   width="5.6350002"
   height="6.098"
   id="rect7" />
				</g>
			</g>
			<g
   id="g14">
				<g
   id="g9">
					<rect
   x="262.11099"
   y="95.301003"
   style="fill:#000000"
   width="3.5109999"
   height="2.8640001"
   id="rect8" />
					<rect
   x="264.42099"
   y="93.684998"
   style="fill:#000000"
   width="5.6360002"
   height="6.0970001"
   id="rect9" />
				</g>
				<g
   id="g11">
					<rect
   x="262.11099"
   y="107.016"
   style="fill:#000000"
   width="3.5109999"
   height="2.8629999"
   id="rect10" />
					<rect
   x="264.42099"
   y="105.398"
   style="fill:#000000"
   width="5.6360002"
   height="6.0970001"
   id="rect11" />
				</g>
				<g
   id="g13">
					<rect
   x="262.11099"
   y="118.729"
   style="fill:#000000"
   width="3.5109999"
   height="2.8640001"
   id="rect12" />
					<rect
   x="264.42099"
   y="117.112"
   style="fill:#000000"
   width="5.6360002"
   height="6.098"
   id="rect13" />
				</g>
			</g>
			<radialGradient
   id="radialGradient5"
   cx="250.4449"
   cy="365.93329"
   r="99.1278"
   gradientUnits="userSpaceOnUse">
				<stop
   offset="0"
   style="stop-color:#FFF200"
   id="stop1" />
				<stop
   offset="0.1164"
   style="stop-color:#F0E100"
   id="stop2" />
				<stop
   offset="0.3475"
   style="stop-color:#C7B400"
   id="stop3" />
				<stop
   offset="0.6716"
   style="stop-color:#876C00"
   id="stop4" />
				<stop
   offset="1"
   style="stop-color:#3F1C00"
   id="stop5" />
			</radialGradient>
			<path
   style="fill:url(#SVGID_1_)"
   d="m 316.623,360.048 c 0,-26.744 -21.023,-39.708 -21.023,-39.708 -11.828,-7.321 1.5,-31.349 1.5,-31.349 8.071,-21.212 -4.692,-28.158 -4.692,-28.158 -9.762,-5.631 -11.827,3.19 -11.827,3.19 -2.628,13.141 -10.136,11.639 -10.136,11.639 -10.7,0.188 -12.766,-12.952 -12.766,-12.952 h -15.358 c 0,0 -2.066,13.14 -12.765,12.952 0,0 -7.509,1.502 -10.137,-11.639 0,0 -2.066,-8.821 -11.826,-3.19 0,0 -12.765,6.946 -4.693,28.158 0,0 13.327,24.027 1.501,31.349 0,0 -21.024,12.964 -21.024,39.708 0,0 -3.567,56.966 66.452,56.778 h 0.342 c 70.018,0.188 66.452,-56.778 66.452,-56.778 z"
   id="path18" />
			<g
   id="g19">
				<path
   style="fill:none;stroke:#ffffff;stroke-miterlimit:10"
   d="m 249.822,414.155 0.694,0.001 c 0.003,0 0.01,0 0.012,0 22.232,0 39.029,-5.888 49.938,-17.502 14.622,-15.567 13.505,-36.231 13.491,-36.439 l -0.005,-0.168 c 0,-24.965 -19.557,-37.314 -19.755,-37.435 -13.394,-8.291 -0.885,-32.242 0.471,-34.741 6.945,-18.452 -3.127,-24.459 -3.561,-24.705 -1.761,-1.016 -3.31,-1.542 -4.515,-1.542 -2.679,0 -3.384,2.885 -3.413,3.008 -2.549,12.754 -9.857,13.752 -12.035,13.752 -0.366,0 -0.665,-0.023 -0.881,-0.05 h -0.046 c -8.801,10e-4 -13.15,-7.531 -14.678,-12.954 h -11.081 c -1.527,5.422 -5.878,12.953 -14.676,12.954 h -0.045 c -0.217,0.026 -0.515,0.05 -0.881,0.05 -2.175,0 -9.46,-0.993 -12.042,-13.764 -0.121,-0.446 -0.923,-2.996 -3.409,-2.996 -1.204,0 -2.752,0.526 -4.478,1.522 -0.468,0.267 -10.542,6.273 -3.596,24.726 1.355,2.499 13.863,26.449 0.475,34.738 -0.197,0.122 -19.759,12.579 -19.759,37.438 l -0.005,0.167 c -0.012,0.204 -1.071,20.976 13.545,36.487 10.911,11.581 27.699,17.454 49.897,17.454 z"
   id="path19" />
			</g>
			<path
   style="fill:#000000;stroke:#ffffff;stroke-width:2;stroke-miterlimit:10"
   d="m 255.876,279.097 c 0,0 14.226,-2.833 15.586,19.619 0,0 0.826,14.766 16.86,25.284 0,0 16.679,14.967 -3.721,18.608 0,0 -6.787,1.69 -11.324,-4.718 0,0 -6.125,-6.811 -17.401,-1.553"
   id="path20" />
			<g
   id="g21">
				<circle
   style="fill:#000000"
   cx="283.67599"
   cy="373.62601"
   r="5.3429999"
   id="circle20" />
				<circle
   style="fill:#000000"
   cx="283.67599"
   cy="373.62601"
   r="3.5"
   id="circle21" />
			</g>
			<g
   id="g22">
				<path
   style="fill:#000000"
   d="m 305.23,353.087 c 0,2.95 -2.392,5.343 -5.344,5.343 -2.95,0 -5.342,-2.393 -5.342,-5.343 0,-2.952 2.392,-5.344 5.342,-5.344 2.953,0 5.344,2.392 5.344,5.344 z"
   id="path21" />
				<circle
   style="fill:#000000"
   cx="299.88699"
   cy="353.08701"
   r="3.5"
   id="circle22" />
			</g>
			<g
   id="g23">
				<path
   style="fill:#000000"
   d="m 312.752,363.774 c 0,2.95 -2.392,5.342 -5.343,5.342 -2.951,0 -5.343,-2.392 -5.343,-5.342 0,-2.952 2.392,-5.344 5.343,-5.344 2.951,10e-4 5.343,2.392 5.343,5.344 z"
   id="path22" />
				<circle
   style="fill:#000000"
   cx="307.409"
   cy="363.77399"
   r="3.5"
   id="circle23" />
			</g>
			<g
   id="g24">
				<path
   style="fill:#000000"
   d="m 294.606,385.572 c 0,2.951 -2.392,5.343 -5.344,5.343 -2.95,0 -5.342,-2.392 -5.342,-5.343 0,-2.951 2.392,-5.343 5.342,-5.343 2.953,0 5.344,2.392 5.344,5.343 z"
   id="path23" />
				<path
   style="fill:#000000"
   d="m 292.764,385.572 c 0,1.934 -1.567,3.5 -3.501,3.5 -1.933,0 -3.5,-1.566 -3.5,-3.5 0,-1.934 1.567,-3.5 3.5,-3.5 1.933,0 3.501,1.567 3.501,3.5 z"
   id="path24" />
			</g>
			<path
   style="fill:#ffffff"
   d="m 265.474,372.522 c 0,1.882 -1.524,3.407 -3.408,3.407 h -24.132 c -1.882,0 -3.408,-1.525 -3.408,-3.407 v 0 c 0,-1.883 1.526,-3.408 3.408,-3.408 h 24.132 c 1.883,0 3.408,1.526 3.408,3.408 z"
   id="path25" />
			<path
   style="fill:#ffffff"
   d="m 265.474,348.297 c 0,1.119 -0.907,2.027 -2.025,2.027 h -26.897 c -1.119,0 -2.026,-0.908 -2.026,-2.027 v 0 c 0,-1.118 0.908,-2.026 2.026,-2.026 h 26.897 c 1.117,0 2.025,0.908 2.025,2.026 z"
   id="path26" />
			<path
   style="fill:#000000"
   d="m 270.54,335.402 c 0,4.477 -3.629,8.105 -8.106,8.105 h -24.869 c -4.477,0 -8.105,-3.629 -8.105,-8.105 v 0 c 0,-4.478 3.629,-8.106 8.105,-8.106 h 24.869 c 4.477,0 8.106,3.629 8.106,8.106 z"
   id="path27" />
			<rect
   x="239.91"
   y="137.724"
   style="fill:#000000"
   width="20.179001"
   height="159.35699"
   id="rect27" />
			<path
   style="fill:#000000"
   d="m 268.145,299.847 c 0,3.765 -3.052,6.816 -6.815,6.816 h -22.66 c -3.765,0 -6.816,-3.052 -6.816,-6.816 v 0 c 0,-3.764 3.052,-6.815 6.816,-6.815 h 22.659 c 3.764,-10e-4 6.816,3.051 6.816,6.815 z"
   id="path28" />
			<rect
   x="239.91"
   y="137.724"
   style="fill:#ffffff"
   width="20.179001"
   height="2.566"
   id="rect28" />
			<path
   style="fill:#000000"
   d="M 262.935,127.595 262.31,88.248 h -2.221 v 0 c 0,-2.803 -4.517,-5.074 -10.089,-5.074 -5.573,0 -10.09,2.271 -10.09,5.074 v 0 h -2.221 l -0.624,39.347 c 2.967,1.717 2.845,10.129 2.845,10.129 h 20.179 c 0,0 -0.122,-8.413 2.846,-10.129 z"
   id="path29" />
			<g
   id="g33">
				<line
   style="fill:none;stroke:#ffffff;stroke-miterlimit:10"
   x1="242.265"
   y1="96.334999"
   x2="242.265"
   y2="372.522"
   id="line29" />
				<line
   style="fill:none;stroke:#ffffff;stroke-miterlimit:10"
   x1="246.14999"
   y1="108.02"
   x2="246.14999"
   y2="372.522"
   id="line30" />
				<line
   style="fill:none;stroke:#ffffff;stroke-miterlimit:10"
   x1="250.036"
   y1="118.045"
   x2="250.036"
   y2="372.522"
   id="line31" />
				<line
   style="fill:none;stroke:#ffffff;stroke-miterlimit:10"
   x1="253.92101"
   y1="108.02"
   x2="253.92101"
   y2="372.522"
   id="line32" />
				<line
   style="fill:none;stroke:#ffffff;stroke-miterlimit:10"
   x1="257.806"
   y1="96.334999"
   x2="257.806"
   y2="372.522"
   id="line33" />
			</g>
			<circle
   style="fill:#000000"
   cx="242.265"
   cy="96.334999"
   r="1.971"
   id="circle33" />
			<path
   style="fill:#000000"
   d="m 259.777,96.335 c 0,1.089 -0.883,1.971 -1.972,1.971 -1.088,0 -1.971,-0.882 -1.971,-1.971 0,-1.089 0.883,-1.971 1.971,-1.971 1.09,0 1.972,0.882 1.972,1.971 z"
   id="path33" />
			<path
   style="fill:#000000"
   d="m 248.122,108.02 c 0,1.089 -0.883,1.972 -1.971,1.972 -1.088,0 -1.971,-0.883 -1.971,-1.972 0,-1.088 0.882,-1.971 1.971,-1.971 1.088,0 1.971,0.883 1.971,1.971 z"
   id="path34" />
			<path
   style="fill:#000000"
   d="m 255.892,108.02 c 0,1.089 -0.882,1.972 -1.971,1.972 -1.089,0 -1.971,-0.883 -1.971,-1.972 0,-1.088 0.882,-1.971 1.971,-1.971 1.089,0 1.971,0.883 1.971,1.971 z"
   id="path35" />
			<path
   style="fill:#000000"
   d="m 217.752,345.699 c -3.103,-0.653 -6.16,1.339 -6.813,4.443 l -1.598,7.586 -3.789,2.47 2.471,3.788 -1.598,7.586 c -0.454,2.155 -2.578,3.541 -4.735,3.088 -1.038,-0.219 -1.888,-0.83 -2.449,-1.639 1.498,0.236 2.939,-0.733 3.256,-2.233 0.327,-1.549 -0.668,-3.075 -2.217,-3.4 -1.536,-0.325 -3.043,0.651 -3.388,2.176 l -0.004,-0.001 c -0.002,0.011 -0.002,0.019 -0.004,0.028 -10e-4,0.006 -0.003,0.009 -0.004,0.015 -0.003,0.014 -0.002,0.027 -0.005,0.041 -0.6,3.075 1.382,6.081 4.457,6.73 3.103,0.653 6.159,-1.34 6.812,-4.443 l 1.598,-7.586 3.789,-2.469 -2.47,-3.789 1.598,-7.586 c 0.453,-2.156 2.578,-3.542 4.735,-3.088 1.146,0.24 2.063,0.963 2.612,1.903 -0.022,-0.008 -0.043,-0.018 -0.066,-0.023 -1.548,-0.325 -3.074,0.67 -3.4,2.22 -0.327,1.55 0.669,3.072 2.217,3.398 1.549,0.327 3.075,-0.667 3.401,-2.216 0.013,-0.064 0.011,-0.126 0.021,-0.19 l 0.018,0.004 c 0.651,-3.103 -1.342,-6.159 -4.445,-6.813 z"
   id="path36" />
			<path
   style="fill:#000000"
   d="m 281.7,345.699 c 3.102,-0.653 6.159,1.339 6.811,4.443 l 1.598,7.586 3.789,2.47 -2.471,3.788 1.599,7.586 c 0.453,2.155 2.577,3.541 4.735,3.088 1.037,-0.219 1.887,-0.83 2.449,-1.639 -1.498,0.236 -2.939,-0.733 -3.256,-2.233 -0.327,-1.549 0.667,-3.075 2.217,-3.4 1.535,-0.325 3.043,0.651 3.389,2.176 l 0.003,-0.001 c 0.002,0.011 0.004,0.019 0.006,0.028 0,0.006 0.002,0.009 0.003,0.015 0.004,0.014 0.002,0.027 0.006,0.041 0.6,3.075 -1.383,6.081 -4.457,6.73 -3.103,0.653 -6.158,-1.34 -6.811,-4.443 l -1.599,-7.586 -3.788,-2.469 2.47,-3.789 -1.598,-7.586 c -0.453,-2.156 -2.577,-3.542 -4.734,-3.088 -1.146,0.24 -2.063,0.963 -2.612,1.903 0.023,-0.008 0.043,-0.018 0.066,-0.023 1.548,-0.325 3.074,0.67 3.4,2.22 0.327,1.55 -0.668,3.072 -2.216,3.398 -1.55,0.327 -3.075,-0.667 -3.402,-2.216 -0.012,-0.064 -0.011,-0.126 -0.021,-0.19 l -0.018,0.004 c -0.655,-3.103 1.339,-6.159 4.442,-6.813 z"
   id="path37" />
		</g><g
       id="g77"
       transform="matrix(0.35710376,0,0,0.35710376,-4.7849557,9.0420541)"
       style="opacity:0.207815">
				
					<radialGradient
   id="radialGradient5-6"
   cx="400.55389"
   cy="340.24371"
   r="70.4505"
   gradientUnits="userSpaceOnUse">
					<stop
   offset="0"
   style="stop-color:#FFF200"
   id="stop1-6" />
					<stop
   offset="0.1164"
   style="stop-color:#F7E100"
   id="stop2-4" />
					<stop
   offset="0.3475"
   style="stop-color:#E4B400"
   id="stop3-1" />
					<stop
   offset="0.6716"
   style="stop-color:#C46C00"
   id="stop4-0" />
					<stop
   offset="1"
   style="stop-color:#A11C00"
   id="stop5-1" />
				</radialGradient>
				
					<path
   style="fill:url(#SVGID_00000066476981634364648120000007539139795049395343_);stroke:#ffffff;stroke-width:2;stroke-miterlimit:10"
   d="m 399.81,264.143 c 0,0 -46.122,-6.259 -47.11,26.355 0,0 0.658,12.52 7.577,19.767 0,0 6.59,9.224 -7.577,18.119 0,0 -22.074,11.201 -14.167,47.11 0,0 7.249,40.583 61.277,41.211 0,0 54.273,4.912 63.583,-47.799 0,0 6.918,-25.697 -17.79,-41.511 0,0 -12.188,-3.953 -1.976,-24.379 0,0 11.531,-27.318 -5.93,-32.767 0,0 -6.259,-3.801 -19.438,9.377 0.002,0.001 -10.543,11.86 -18.449,-15.483 z"
   id="path41" />
				<g
   id="g42">
					<path
   style="fill:none;stroke:#ffffff;stroke-miterlimit:10"
   d="m 400.332,410.942 c 0,0 1.16,0.097 3.112,0.097 14.021,0 47.373,-4.203 54.251,-43.14 l 0.111,-0.497 c 0.22,-0.854 5.3,-21.615 -14.915,-34.869 -1.8,-0.811 -5.633,-3.051 -7.734,-8.068 -2.622,-6.257 -1.545,-14.28 3.201,-23.849 1.517,-3.705 4.97,-14.995 2.131,-21.088 -0.885,-1.897 -2.276,-3.056 -4.516,-3.754 l -0.73,-0.244 c -0.027,-10e-4 -0.058,-0.002 -0.092,-0.002 -0.767,0 -4.974,0.393 -12.718,8.108 -0.953,1.019 -4.461,4.335 -9.678,4.335 -7.292,0 -13.101,-6.185 -17.301,-18.4 -1.216,-0.069 -2.691,-0.123 -4.342,-0.123 -14.52,0 -31.925,3.646 -32.621,20.967 0.224,3.085 1.666,11.346 5.969,15.854 l 0.284,0.297 0.239,0.335 c 0.372,0.52 3.597,5.275 2.304,11.826 -1.095,5.55 -4.968,10.448 -11.512,14.557 l -0.459,0.261 c -0.681,0.365 -17.898,9.983 -11.134,40.705 l 0.045,0.228 c 0.273,1.437 7.344,35.88 55.648,36.441 z"
   id="path42" />
				</g>
				<g
   id="g49">
					<g
   id="g45">
						<rect
   x="384.41599"
   y="107.244"
   style="fill:#000000"
   width="5.0939999"
   height="2.5810001"
   id="rect42" />
						<path
   style="fill:#000000"
   d="m 381.88,108.534 c 0,1.749 1.418,3.167 3.167,3.167 v -6.333 c -1.749,0 -3.167,1.418 -3.167,3.166 z"
   id="path43" />
						<rect
   x="386.00101"
   y="118.627"
   style="fill:#000000"
   width="5.0929999"
   height="2.5810001"
   id="rect43" />
						<path
   style="fill:#000000"
   d="m 383.464,119.918 c 0,1.748 1.418,3.166 3.167,3.166 v -6.333 c -1.749,0 -3.167,1.418 -3.167,3.167 z"
   id="path44" />
						<rect
   x="386.00101"
   y="130.162"
   style="fill:#000000"
   width="5.0929999"
   height="2.5810001"
   id="rect44" />
						<path
   style="fill:#000000"
   d="m 383.464,131.453 c 0,1.748 1.418,3.166 3.167,3.166 v -6.333 c -1.749,0 -3.167,1.418 -3.167,3.167 z"
   id="path45" />
					</g>
					<g
   id="g48">
						<rect
   x="414.01999"
   y="107.244"
   style="fill:#000000"
   width="5.0929999"
   height="2.5810001"
   id="rect45" />
						<path
   style="fill:#000000"
   d="m 421.649,108.534 c 0,1.749 -1.418,3.167 -3.168,3.167 v -6.333 c 1.75,0 3.168,1.418 3.168,3.166 z"
   id="path46" />
						<rect
   x="412.435"
   y="118.627"
   style="fill:#000000"
   width="5.0929999"
   height="2.5810001"
   id="rect46" />
						<path
   style="fill:#000000"
   d="m 420.065,119.918 c 0,1.748 -1.418,3.166 -3.168,3.166 v -6.333 c 1.75,0 3.168,1.418 3.168,3.167 z"
   id="path47" />
						<rect
   x="412.435"
   y="130.162"
   style="fill:#000000"
   width="5.0929999"
   height="2.5810001"
   id="rect47" />
						<path
   style="fill:#000000"
   d="m 420.065,131.453 c 0,1.748 -1.418,3.166 -3.168,3.166 v -6.333 c 1.75,0 3.168,1.418 3.168,3.167 z"
   id="path48" />
					</g>
				</g>
				<path
   style="fill:#000000"
   d="m 380.4,335.109 c 0.152,-4.202 -3.144,-7.745 -7.347,-7.896 -4.201,-0.151 -7.744,3.145 -7.895,7.348 l -0.37,10.274 -4.39,4.085 4.085,4.391 -0.37,10.275 c -0.105,2.918 -2.565,5.209 -5.488,5.105 -1.404,-0.051 -2.654,-0.657 -3.572,-1.586 2.011,-0.031 3.675,-1.623 3.749,-3.654 0.077,-2.1 -1.567,-3.868 -3.667,-3.943 -2.079,-0.078 -3.829,1.541 -3.935,3.61 h -0.005 c 0,0.014 0,0.025 0,0.038 0.001,0.009 -0.003,0.012 -10e-4,0.02 -0.003,0.021 0.003,0.037 0.002,0.057 -0.088,4.153 3.184,7.632 7.346,7.784 4.204,0.151 7.745,-3.146 7.896,-7.348 l 0.37,-10.275 4.393,-4.082 -4.087,-4.393 0.37,-10.275 c 0.104,-2.92 2.565,-5.212 5.488,-5.106 1.551,0.055 2.913,0.793 3.844,1.897 -0.031,-0.006 -0.061,-0.015 -0.091,-0.016 -2.098,-0.075 -3.867,1.57 -3.939,3.67 -0.079,2.099 1.567,3.863 3.665,3.938 2.097,0.077 3.867,-1.566 3.943,-3.666 0,-0.087 -0.016,-0.166 -0.017,-0.253 z"
   id="path49" />
				<path
   style="fill:#000000"
   d="m 420.895,335.109 c -0.152,-4.202 3.144,-7.745 7.347,-7.896 4.201,-0.151 7.745,3.145 7.896,7.348 l 0.37,10.274 4.391,4.085 -4.086,4.391 0.37,10.275 c 0.105,2.918 2.566,5.209 5.488,5.105 1.405,-0.051 2.654,-0.657 3.572,-1.586 -2.01,-0.031 -3.675,-1.623 -3.749,-3.654 -0.076,-2.1 1.568,-3.868 3.667,-3.943 2.079,-0.078 3.83,1.541 3.935,3.61 h 0.005 c 0,0.014 10e-4,0.025 10e-4,0.038 -0.002,0.009 0.002,0.012 0.001,0.02 0.002,0.021 -0.003,0.037 -0.003,0.057 0.088,4.153 -3.183,7.632 -7.346,7.784 -4.203,0.151 -7.745,-3.146 -7.896,-7.348 l -0.371,-10.275 -4.392,-4.082 4.086,-4.393 -0.369,-10.275 c -0.104,-2.92 -2.565,-5.212 -5.488,-5.106 -1.552,0.055 -2.913,0.793 -3.845,1.897 0.031,-0.006 0.062,-0.015 0.092,-0.016 2.097,-0.075 3.866,1.57 3.94,3.67 0.078,2.099 -1.568,3.863 -3.666,3.938 -2.097,0.077 -3.867,-1.566 -3.943,-3.666 0,-0.087 0.016,-0.166 0.018,-0.253 z"
   id="path50" />
				<rect
   x="379.53799"
   y="350.26999"
   style="fill:#000000"
   width="43.490002"
   height="6.5159998"
   id="rect50" />
				<rect
   x="387.72101"
   y="377.57901"
   style="fill:#ffffff"
   width="27.125"
   height="5.7649999"
   id="rect51" />
				<rect
   x="387.82901"
   y="331.68301"
   style="fill:#000000"
   width="27.417"
   height="15.132"
   id="rect52" />
				<rect
   x="390.13699"
   y="333.44199"
   style="fill:#ffffff"
   width="22.802999"
   height="11.611"
   id="rect53" />
				<rect
   x="393.289"
   y="149.17599"
   style="fill:#000000;stroke:#ffffff;stroke-miterlimit:10"
   width="16.469999"
   height="153.215"
   id="rect54" />
				<rect
   x="386.02499"
   y="293.82999"
   style="fill:#000000"
   width="31.025"
   height="17.122999"
   id="rect55" />
				<rect
   x="388.63599"
   y="295.82199"
   style="fill:#ffffff"
   width="25.805"
   height="13.14"
   id="rect56" />
				<path
   style="fill:#000000"
   d="m 418.005,98.058 c 0,0 -3.547,-0.151 -4.125,-3.337 h -4.276 c -0.744,-2.753 -4.076,-4.83 -8.077,-4.83 -4.001,0 -7.334,2.077 -8.078,4.83 h -4.277 c -0.578,3.186 -4.124,3.337 -4.124,3.337 6.977,10.467 4.248,39.591 4.248,39.591 4.398,3.944 3.991,11.527 3.991,11.527 h 16.479 c 0,0 -0.408,-7.583 3.991,-11.527 0,0 -2.73,-29.124 4.248,-39.591 z"
   id="path56" />
				<line
   style="fill:none;stroke:#ffffff;stroke-miterlimit:10"
   x1="394.89301"
   y1="378.95001"
   x2="394.89301"
   y2="131.24001"
   id="line56" />
				<line
   style="fill:none;stroke:#ffffff;stroke-miterlimit:10"
   x1="397.513"
   y1="378.95001"
   x2="397.513"
   y2="119.371"
   id="line57" />
				<line
   style="fill:none;stroke:#ffffff;stroke-miterlimit:10"
   x1="400.133"
   y1="378.95001"
   x2="400.133"
   y2="105.947"
   id="line58" />
				<line
   style="fill:none;stroke:#ffffff;stroke-miterlimit:10"
   x1="402.75299"
   y1="378.95001"
   x2="402.75299"
   y2="105.947"
   id="line59" />
				<line
   style="fill:none;stroke:#ffffff;stroke-miterlimit:10"
   x1="405.37201"
   y1="378.95001"
   x2="405.37201"
   y2="119.371"
   id="line60" />
				<line
   style="fill:none;stroke:#ffffff;stroke-miterlimit:10"
   x1="407.992"
   y1="378.95001"
   x2="407.992"
   y2="131.24001"
   id="line61" />
				<path
   style="fill:#ffffff"
   d="m 400.566,105.954 c 0,1.426 -1.155,2.58 -2.58,2.58 -1.425,0 -2.581,-1.154 -2.581,-2.58 0,-1.425 1.156,-2.58 2.581,-2.58 1.425,0 2.58,1.155 2.58,2.58 z"
   id="path61" />
				<path
   style="fill:#ffffff"
   d="m 397.986,119.918 c 0,1.425 -1.156,2.58 -2.581,2.58 -1.424,0 -2.58,-1.155 -2.58,-2.58 0,-1.426 1.156,-2.581 2.58,-2.581 1.425,-0.001 2.581,1.155 2.581,2.581 z"
   id="path62" />
				<path
   style="fill:#ffffff"
   d="m 410.021,119.918 c 0,1.425 -1.155,2.58 -2.58,2.58 -1.424,0 -2.58,-1.155 -2.58,-2.58 0,-1.426 1.156,-2.581 2.58,-2.581 1.425,-0.001 2.58,1.155 2.58,2.581 z"
   id="path63" />
				<path
   style="fill:#ffffff"
   d="m 395.405,131.453 c 0,0.978 -0.793,1.77 -1.771,1.77 -0.978,0 -1.772,-0.793 -1.772,-1.77 0,-0.979 0.794,-1.771 1.772,-1.771 0.978,-10e-4 1.771,0.792 1.771,1.771 z"
   id="path64" />
				<path
   style="fill:#ffffff"
   d="m 411.074,131.453 c 0,0.978 -0.792,1.77 -1.771,1.77 -0.977,0 -1.77,-0.793 -1.77,-1.77 0,-0.979 0.793,-1.771 1.77,-1.771 0.979,-10e-4 1.771,0.792 1.771,1.771 z"
   id="path65" />
				<path
   style="fill:#ffffff"
   d="m 407.441,105.954 c 0,1.426 -1.155,2.58 -2.58,2.58 -1.424,0 -2.58,-1.154 -2.58,-2.58 0,-1.425 1.156,-2.58 2.58,-2.58 1.425,-10e-4 2.58,1.155 2.58,2.58 z"
   id="path66" />
				<g
   id="g68">
					<path
   style="fill:#ffffff"
   d="m 392.568,379.826 c 0,0.835 -0.677,1.513 -1.513,1.513 v 0 c -0.835,0 -1.513,-0.678 -1.513,-1.513 v -4.492 c 0,-0.836 0.678,-1.513 1.513,-1.513 v 0 c 0.836,0 1.513,0.677 1.513,1.513 z"
   id="path67" />
					<path
   style="fill:#ffffff"
   d="m 413.195,379.826 c 0,0.835 -0.678,1.513 -1.513,1.513 v 0 c -0.836,0 -1.513,-0.678 -1.513,-1.513 v -4.492 c 0,-0.836 0.677,-1.513 1.513,-1.513 v 0 c 0.835,0 1.513,0.677 1.513,1.513 z"
   id="path68" />
				</g>
				<g
   id="g70">
					<path
   style="fill:#ffffff"
   d="m 431.125,362.549 c 0,1.864 -1.511,3.376 -3.376,3.376 -1.863,0 -3.375,-1.512 -3.375,-3.376 0,-1.864 1.512,-3.375 3.375,-3.375 1.865,0 3.376,1.511 3.376,3.375 z"
   id="path69" />
					<path
   style="fill:#ffffff"
   d="m 430.258,362.549 c 0,1.386 -1.123,2.508 -2.509,2.508 -1.385,0 -2.507,-1.122 -2.507,-2.508 0,-1.385 1.122,-2.508 2.507,-2.508 1.386,0 2.509,1.123 2.509,2.508 z"
   id="path70" />
				</g>
				<g
   id="g72">
					<path
   style="fill:#ffffff"
   d="m 436.14,374.797 c 0,1.865 -1.511,3.376 -3.375,3.376 -1.864,0 -3.375,-1.511 -3.375,-3.376 0,-1.863 1.511,-3.375 3.375,-3.375 1.864,0 3.375,1.512 3.375,3.375 z"
   id="path71" />
					<path
   style="fill:#ffffff"
   d="m 435.272,374.797 c 0,1.386 -1.122,2.509 -2.508,2.509 -1.386,0 -2.508,-1.123 -2.508,-2.509 0,-1.385 1.122,-2.507 2.508,-2.507 1.386,0 2.508,1.122 2.508,2.507 z"
   id="path72" />
				</g>
				<g
   id="g74">
					<path
   style="fill:#ffffff"
   d="m 448.203,378.949 c 0,1.864 -1.511,3.376 -3.376,3.376 -1.863,0 -3.375,-1.512 -3.375,-3.376 0,-1.864 1.512,-3.375 3.375,-3.375 1.865,0 3.376,1.511 3.376,3.375 z"
   id="path73" />
					<path
   style="fill:#ffffff"
   d="m 447.336,378.949 c 0,1.386 -1.123,2.508 -2.509,2.508 -1.385,0 -2.507,-1.122 -2.507,-2.508 0,-1.385 1.122,-2.508 2.507,-2.508 1.386,0 2.509,1.124 2.509,2.508 z"
   id="path74" />
				</g>
				<g
   id="g76">
					<path
   style="fill:#ffffff"
   d="m 433.633,391.037 c 0,1.865 -1.511,3.376 -3.376,3.376 -1.864,0 -3.375,-1.511 -3.375,-3.376 0,-1.864 1.511,-3.375 3.375,-3.375 1.865,0 3.376,1.511 3.376,3.375 z"
   id="path75" />
					<path
   style="fill:#ffffff"
   d="m 432.765,391.037 c 0,1.386 -1.122,2.509 -2.508,2.509 -1.385,0 -2.507,-1.123 -2.507,-2.509 0,-1.385 1.122,-2.507 2.507,-2.507 1.386,0 2.508,1.122 2.508,2.507 z"
   id="path76" />
				</g>
			</g></g></svg>
