<?xml version="1.0" encoding="UTF-8" standalone="no"?>
<!-- Created with Inkscape (http://www.inkscape.org/) -->

<svg
   width="35mm"
   height="35mm"
   viewBox="0 0 35 35"
   version="1.1"
   id="svg1"
   inkscape:version="1.3.2 (091e20e, 2023-11-25, custom)"
   sodipodi:docname="black-and-white-logo.svg"
   inkscape:export-filename="black-and-white-logo.png"
   inkscape:export-xdpi="957.94287"
   inkscape:export-ydpi="957.94287"
   xmlns:inkscape="http://www.inkscape.org/namespaces/inkscape"
   xmlns:sodipodi="http://sodipodi.sourceforge.net/DTD/sodipodi-0.dtd"
   xmlns="http://www.w3.org/2000/svg"
   xmlns:svg="http://www.w3.org/2000/svg">
  <sodipodi:namedview
     id="namedview1"
     pagecolor="#ffffff"
     bordercolor="#000000"
     borderopacity="0.25"
     inkscape:showpageshadow="2"
     inkscape:pageopacity="0.0"
     inkscape:pagecheckerboard="0"
     inkscape:deskcolor="#d1d1d1"
     inkscape:document-units="mm"
     inkscape:zoom="2.0485264"
     inkscape:cx="82.010171"
     inkscape:cy="7.0782588"
     inkscape:window-width="1920"
     inkscape:window-height="1009"
     inkscape:window-x="-8"
     inkscape:window-y="-8"
     inkscape:window-maximized="1"
     inkscape:current-layer="g7-4-5-3" />
  <defs
     id="defs1">
    <rect
       x="365.62866"
       y="168.41374"
       width="39.784695"
       height="57.358303"
       id="rect3" />
    <rect
       x="135.30988"
       y="185.01553"
       width="642.72192"
       height="398.33572"
       id="rect1" />
    <rect
       x="135.30988"
       y="185.01553"
       width="642.72192"
       height="398.33572"
       id="rect1-9" />
    <rect
       x="135.30988"
       y="185.01553"
       width="642.72192"
       height="398.33572"
       id="rect1-9-1" />
    <rect
       x="135.30988"
       y="185.01553"
       width="642.72192"
       height="398.33572"
       id="rect1-9-3" />
    <rect
       x="135.30988"
       y="185.01553"
       width="642.72192"
       height="398.33572"
       id="rect1-9-3-2" />
    <rect
       x="135.30988"
       y="185.01553"
       width="642.72192"
       height="398.33572"
       id="rect1-9-3-2-2" />
  </defs>
  <g
     inkscape:label="Calque 1"
     inkscape:groupmode="layer"
     id="layer1"
     transform="translate(-152.14799,-58.895996)">
    <circle
       style="opacity:1;fill:#000000;fill-opacity:1;stroke:none;stroke-width:0.132025;stroke-miterlimit:7;stroke-dasharray:none;stroke-opacity:1;paint-order:markers fill stroke"
       id="path8"
       cx="169.64799"
       cy="76.395996"
       r="17.5" />
    <g
       id="g7-4-5-3"
       transform="translate(73.099732,35.91006)"
       style="fill:#ffffff;fill-opacity:1;stroke:none">
      <text
         xml:space="preserve"
         transform="matrix(0.26458333,0,0,0.26458333,-25.206642,-25.023985)"
         id="text1-9-7-9"
         style="font-weight:bold;font-size:53.3333px;font-family:Montserrat;-inkscape-font-specification:'Montserrat Bold';text-align:center;letter-spacing:-5px;word-spacing:0px;white-space:pre;shape-inside:url(#rect1-9-3-2);display:inline;opacity:1;fill:#ffffff;fill-opacity:1;stroke:none;stroke-width:0.188976;stroke-miterlimit:7;stroke-dasharray:none;stroke-opacity:1;paint-order:markers fill stroke"><tspan
           x="420.99094"
           y="240.8396"
           id="tspan4"><tspan
             style="font-weight:normal;font-family:Brafesuit;-inkscape-font-specification:Brafesuit;letter-spacing:0px"
             id="tspan3">Black</tspan></tspan></text>
      <path
         d="m 111.78622,42.950338 c -0.0847,-0.04233 -0.127,-0.08467 -0.0705,-0.08467 0.0141,0 0.0282,0.01411 0.0282,0.02822 0,0.01411 0,0.01411 0.0141,0.01411 0.0141,-0.01411 0.0564,-0.01411 0.0988,0.01411 0.11289,0.04233 0.0988,0 -0.0423,-0.07055 -0.0706,-0.04233 -0.127,-0.09878 -0.127,-0.112889 0,-0.04233 0.0564,-0.04233 0.0988,0 0.0282,0.02822 0.0282,0.01411 0.0282,-0.02822 0,-0.02822 -0.0141,-0.04233 -0.0282,-0.04233 -0.0141,0.01411 -0.0564,0 -0.0847,-0.02822 -0.0282,-0.02822 -0.0706,-0.05644 -0.0988,-0.07055 -0.0282,0 -0.0423,-0.02822 -0.0423,-0.05645 0,-0.02822 -0.0282,-0.05644 -0.0988,-0.08467 -0.0423,-0.01411 -0.127,-0.07056 -0.16933,-0.112889 -0.0423,-0.02822 -0.0988,-0.07055 -0.127,-0.07055 -0.0282,0 -0.0423,-0.01411 -0.0423,-0.02822 0,-0.01411 -0.0141,-0.01411 -0.0282,-0.01411 -0.0564,0 -0.73378,-0.536222 -0.71967,-0.564444 0,-0.01411 -0.0141,-0.02822 -0.0282,-0.01411 -0.0141,0 -0.0705,-0.01411 -0.11289,-0.05644 -0.0282,-0.04233 -0.0847,-0.05645 -0.0988,-0.05645 -0.0282,0.01411 -0.0423,0.01411 -0.0282,0 0.0141,-0.01411 -0.0282,-0.05644 -0.0705,-0.09878 -0.0564,-0.04233 -0.127,-0.09878 -0.15522,-0.127 -0.0282,-0.04233 -0.0706,-0.07056 -0.0847,-0.07056 -0.0141,0 -0.0282,-0.01411 -0.0282,-0.02822 0,-0.02822 -0.0141,-0.04233 -0.0282,-0.04233 -0.0141,0 -0.0423,0 -0.0847,-0.02822 -0.0706,-0.02822 -0.0847,-0.05645 -0.0706,-0.112889 0,-0.01411 -0.0141,-0.01411 -0.0282,0 -0.0141,0.01411 -0.0282,0 -0.0282,-0.01411 0,-0.01411 -0.0282,-0.04233 -0.0706,-0.05644 -0.0423,-0.02822 -0.0988,-0.08467 -0.127,-0.141111 -0.0282,-0.05644 -0.0423,-0.09878 -0.0564,-0.112889 0,-0.01411 0.0141,-0.02822 0.0282,-0.02822 0.0141,0 0.15522,0.112889 0.29633,0.254 0.15523,0.141111 0.33867,0.310444 0.42334,0.366889 0.0705,0.07056 0.15522,0.141111 0.16933,0.155222 0.0706,0.05644 0.39511,0.310444 0.49389,0.380999 0.0423,0.02822 0.0706,0.07056 0.0564,0.08467 0,0.01411 0,0.02822 0.0141,0.01411 0.0141,-0.01411 0.0706,0.02822 0.127,0.07056 0.0564,0.05644 0.0988,0.08467 0.0988,0.08467 0.0141,-0.01411 0.0564,0 0.14111,0.08467 0.0282,0.02822 0.0564,0.05644 0.0706,0.05644 0.0141,0 0.0282,0 0.0282,0.01411 0,0.01411 0.0141,0.02822 0.0282,0.02822 0.0282,0 0.0706,0.02822 0.11289,0.05644 0.14111,0.112889 0.39511,0.183444 0.39511,0.127 0,-0.01411 0,-0.02822 -0.0141,-0.02822 -0.0141,0 -0.0423,-0.01411 -0.0705,-0.04233 -0.0282,-0.01411 -0.11289,-0.08467 -0.19756,-0.141111 -0.0847,-0.04233 -0.18344,-0.112888 -0.19755,-0.127 -0.15523,-0.09878 -0.635,-0.451555 -0.64912,-0.465666 -0.0141,-0.01411 -0.0847,-0.07055 -0.14111,-0.112889 -0.0705,-0.04233 -0.127,-0.08467 -0.14111,-0.112888 -0.0141,-0.02822 -0.0423,-0.04233 -0.0564,-0.04233 -0.0141,0 -0.0423,-0.02822 -0.0565,-0.05644 -0.0282,-0.01411 -0.0705,-0.05645 -0.0988,-0.07056 -0.0282,-0.01411 -0.0706,-0.05644 -0.0847,-0.08467 -0.0423,-0.05645 -0.0423,-0.05645 0.0141,-0.02822 0.0282,0.01411 0.0564,0.04233 0.0706,0.07055 0,0.01411 0.0282,0.02822 0.0423,0.02822 0.0141,0 0.22578,0.155222 0.28222,0.211667 0,0.01411 0.0706,0.05644 0.127,0.09878 0.0706,0.05645 0.15522,0.127 0.19756,0.155223 0.0423,0.02822 0.0988,0.07056 0.14111,0.09878 0.0423,0.02822 0.0705,0.05644 0.0705,0.07056 0,0 0.0141,0.01411 0.0282,0.01411 0.0141,0 0.19755,0.127 0.36688,0.254 0.0847,0.05644 0.381,0.211666 0.40923,0.211666 0.0141,0 -0.0141,-0.05644 -0.0847,-0.112889 -0.0564,-0.05644 -0.11289,-0.09878 -0.11289,-0.09878 -0.0141,0 -0.35278,-0.225778 -0.40922,-0.282222 -0.0423,-0.02822 -0.0423,-0.04233 -0.0141,-0.05644 0.0282,-0.01411 0.0141,-0.01411 -0.0141,-0.01411 -0.0423,0.01411 -0.19756,-0.05644 -0.26811,-0.127 -0.0282,-0.01411 -0.11289,-0.09878 -0.22578,-0.169333 -0.43745,-0.338666 -1.17122,-0.973666 -1.17122,-1.03011 0,-0.01411 0.0282,-0.04233 0.0564,-0.05644 0.0282,0 0.0423,-0.02822 0.0423,-0.08467 0,-0.05645 0,-0.07056 0.0706,-0.05645 0.0423,0 0.0706,0 0.0847,-0.04233 0.0141,-0.02822 0.0423,-0.07055 0.0705,-0.112889 0.0282,-0.02822 0.0847,-0.09878 0.11289,-0.141111 0.0423,-0.05644 0.0706,-0.09878 0.0564,-0.127 0,-0.01411 0.0282,-0.04233 0.0706,-0.07055 0.0564,-0.04233 0.0564,-0.04233 0.0141,-0.09878 -0.0282,-0.02822 -0.0423,-0.05644 -0.0141,-0.07055 0.0282,-0.02822 0.0282,-0.02822 0.0282,0 0,0.05644 0.0423,0.02822 0.0988,-0.05644 0.0423,-0.07055 0.0423,-0.09878 0.0282,-0.127 -0.0282,-0.04233 -0.0141,-0.05644 0.0423,-0.09878 0.0282,-0.02822 0.0705,-0.07056 0.0705,-0.09878 0,-0.01411 0,-0.02822 0.0141,-0.01411 0.0282,0.01411 0.0706,-0.07056 0.127,-0.211667 0,-0.02822 0.0141,-0.112888 0.0282,-0.183444 0.0282,-0.127 0.0141,-0.141111 -0.0423,-0.155222 -0.0564,-0.01411 -0.0705,0 -0.14111,0.07056 -0.0282,0.05644 -0.0706,0.112889 -0.0847,0.141111 0,0.01411 -0.0282,0.04233 -0.0564,0.04233 -0.0282,0 -0.0564,0.01411 -0.0706,0.02822 -0.0141,0.02822 -0.0564,0.07055 -0.11288,0.09878 -0.0423,0.02822 -0.0847,0.07056 -0.0847,0.09878 0,0.01411 0,0.02822 -0.0141,0.04233 -0.0141,0.01411 -0.0282,-0.01411 -0.0282,-0.04233 0,-0.02822 0.0705,-0.127 0.18344,-0.239888 0.0988,-0.09878 0.16933,-0.197556 0.16933,-0.211667 0,-0.01411 0.0282,-0.04233 0.0564,-0.08467 0.0988,-0.09878 0,-0.141111 -0.127,-0.05644 -0.0423,0.02822 -0.127,0.08467 -0.19756,0.112889 -0.0705,0.04233 -0.18344,0.09878 -0.23989,0.127 -0.0705,0.02822 -0.127,0.07055 -0.14111,0.09878 -0.0141,0.01411 -0.0423,0.02822 -0.0705,0.04233 -0.0282,0 -0.0988,0.04233 -0.15523,0.09878 -0.0564,0.04233 -0.11288,0.08467 -0.127,0.08467 -0.0282,0 -0.18344,0.183444 -0.18344,0.211667 0,0.01411 -0.0141,0.02822 -0.0423,0.02822 -0.0282,0 -0.0988,0.05644 -0.16934,0.127 -0.127,0.127 -0.21166,0.155222 -0.18344,0.04233 0.0141,-0.02822 0,-0.04233 -0.0282,-0.04233 -0.0282,0 -0.0988,-0.07056 -0.15522,-0.155222 -0.0565,-0.08467 -0.127,-0.155222 -0.127,-0.155222 -0.0141,0 -0.0564,-0.04233 -0.0847,-0.112889 -0.0423,-0.05644 -0.11289,-0.155222 -0.16933,-0.225778 -0.0706,-0.05644 -0.11289,-0.112889 -0.11289,-0.141111 0,-0.01411 -0.0141,-0.02822 -0.0141,-0.02822 -0.0141,0 -0.0423,-0.04233 -0.0564,-0.08467 -0.0141,-0.04233 -0.0564,-0.09878 -0.0705,-0.127 -0.0282,-0.01411 -0.0847,-0.09878 -0.11289,-0.169333 l -0.0564,-0.141111 0.0564,-0.05644 c 0.0423,-0.04233 0.0564,-0.08467 0.0423,-0.141111 0,-0.07056 0,-0.08467 0.0423,-0.08467 0.0282,0 0.0423,-0.01411 0.0282,-0.07055 -0.0141,-0.05644 0,-0.08467 0.0564,-0.155222 0.0282,-0.04233 0.0564,-0.08467 0.0564,-0.112889 0,-0.01411 0.0282,-0.05645 0.0564,-0.08467 0.0282,-0.04233 0.0423,-0.08467 0.0282,-0.112889 0,-0.02822 0,-0.05644 0.0282,-0.05644 0.0141,-0.01411 0.0282,-0.04233 0.0282,-0.07056 0,-0.02822 0.0141,-0.08467 0.0282,-0.126999 0.0564,-0.141111 0.0705,-0.197556 0.0705,-0.211667 0,-0.01411 0.0282,-0.04233 0.0565,-0.08467 0.0564,-0.02822 0.0705,-0.05644 0.0564,-0.09878 0,-0.04233 0,-0.07056 0.0282,-0.09878 0.0141,-0.01411 0.0423,-0.05644 0.0423,-0.08467 0,-0.04233 0.0141,-0.07056 0.0282,-0.08467 0.0282,0 0.0423,-0.02822 0.0282,-0.07056 -0.0141,-0.02822 0,-0.07055 0.0282,-0.09878 0.0141,-0.01411 0.0423,-0.07056 0.0423,-0.112889 0,-0.02822 0.0141,-0.08467 0.0423,-0.127 0.0282,-0.04233 0.0564,-0.08467 0.0564,-0.09878 0,-0.01411 0.0141,-0.07055 0.0282,-0.09878 0.0847,-0.225778 0.16933,-0.493889 0.15522,-0.550333 0,-0.02822 0,-0.07056 0.0282,-0.09878 0.0423,-0.05644 0.0847,-0.141111 0.0706,-0.183444 0,-0.02822 0.0423,-0.141111 0.0847,-0.155222 0.0141,-0.01411 0.0282,-0.08467 0.0423,-0.141111 0,-0.08467 0.0282,-0.155223 0.0564,-0.169334 0.0282,-0.02822 0.0564,-0.112888 0.0564,-0.197555 0.0141,-0.08467 0.0282,-0.169333 0.0423,-0.197555 0.0705,-0.112889 0.127,-1.016 0.0705,-1.016 -0.0141,0 -0.0141,-0.02822 -0.0141,-0.04233 0,-0.02822 -0.0282,-0.08467 -0.0705,-0.141111 -0.0282,-0.04233 -0.0706,-0.09878 -0.0706,-0.127 0,-0.01411 -0.0282,-0.05644 -0.0705,-0.08467 -0.0565,-0.02822 -0.0847,-0.08467 -0.11289,-0.169334 -0.0423,-0.112888 -0.127,-0.225777 -0.23989,-0.282222 -0.127,-0.07055 -0.59267,-0.08467 -0.635,-0.02822 -0.0282,0.02822 -0.0423,0.02822 -0.0706,0.01411 -0.0423,-0.04233 -0.35277,-0.04233 -0.39511,-0.01411 -0.0282,0.02822 -0.0423,0.02822 -0.0423,0 0,-0.01411 -0.0141,-0.02822 -0.0423,-0.01411 -0.0141,0.01411 -0.0706,0.02822 -0.11289,0.02822 -0.0423,0 -0.0847,0.02822 -0.0988,0.04233 -0.0141,0.01411 -0.0423,0.01411 -0.0706,0.01411 -0.0423,0 -0.23989,0.09878 -0.33867,0.169333 -0.0423,0.01411 -0.0706,0.02822 -0.0847,0.02822 -0.0141,-0.01411 -0.0141,-0.01411 -0.0141,0 0,0.01411 -0.0564,0.05644 -0.11289,0.08467 -0.0564,0.04233 -0.11289,0.08467 -0.127,0.09878 -0.0141,0.01411 -0.0564,0.04233 -0.0847,0.04233 -0.0847,0 -0.14112,0.04233 -0.127,0.08467 0.0141,0.01411 -0.0141,0.04233 -0.0423,0.05644 -0.0282,0.02822 -0.0423,0.02822 -0.0423,0.01411 0.0282,-0.04233 -0.0282,-0.07056 -0.0706,-0.02822 -0.0141,0.01411 -0.0423,0.05644 -0.0423,0.08467 0,0.02822 -0.0564,0.112889 -0.15522,0.211667 -0.0847,0.08467 -0.18345,0.197555 -0.21167,0.239888 -0.0988,0.169334 -0.18344,0.225778 -0.16933,0.141111 0,-0.01411 -0.0141,-0.01411 -0.0282,0 -0.0141,0.01411 -0.0141,0.02822 0.0141,0.07056 0.0282,0.08467 -0.0141,0.141111 -0.0988,0.141111 -0.0564,0 -0.14111,0.127 -0.14111,0.211666 0,0.02822 -0.0141,0.05645 -0.0282,0.05645 -0.0141,0 -0.0423,0.01411 -0.0706,0.05644 -0.0423,0.04233 -0.0564,0.04233 -0.0847,0.01411 -0.0423,-0.04233 -0.0705,-0.02822 -0.0564,0.01411 0,0.01411 0,0.04233 -0.0282,0.07056 -0.0141,0.01411 -0.0423,0.07056 -0.0564,0.127 0,0.05644 -0.0282,0.112889 -0.0423,0.127 -0.0423,0.04233 -0.0847,0.225777 -0.0706,0.338666 0,0.02822 -0.0141,0.07056 -0.0282,0.07056 0,0 -0.0141,0.04233 -0.0141,0.09878 0,0.05644 -0.0141,0.112889 -0.0282,0.127 -0.0282,0.01411 -0.0282,0.07056 -0.0282,0.197556 0,0.02822 -0.0141,0.08467 -0.0282,0.112888 -0.0282,0.04233 -0.0141,0.05645 0.0282,0.05645 0.0705,0 0.0847,0.04233 0.0282,0.05644 -0.0423,0.01411 -0.0564,0.04233 -0.0423,0.141111 0,0.09878 0,0.112889 0.0282,0.09878 0.0564,-0.04233 0.127,0.04233 0.0847,0.09878 -0.0988,0.197555 -0.0847,0.183444 -0.0282,0.169333 0.0282,0 0.0423,0.01411 0.0565,0.127 0,0.08467 0.0141,0.141111 0.0423,0.169333 0.0282,0.01411 0.0423,0.02822 0.0141,0.05644 -0.0282,0.04233 0,0.127 0.0564,0.183445 0.0282,0.01411 0.0282,0.05644 0.0282,0.08467 -0.0141,0.01411 0,0.04233 0.0141,0.04233 0.0141,0 0.0282,-0.01411 0.0282,-0.02822 0,-0.01411 0.0141,-0.01411 0.0282,-0.01411 0.0141,0.01411 0.0141,0.05645 0.0141,0.09878 -0.0141,0.04233 -0.0141,0.07055 0.0141,0.08467 0.0141,0 0.0141,0.01411 0,0.05645 -0.0423,0.05644 0.0141,0.197555 0.0988,0.239889 0.0282,0.02822 0.0423,0.05644 0.0423,0.08467 -0.0141,0.04233 0.0423,0.197556 0.0705,0.197556 0.0141,0 0.0282,0.02822 0.0282,0.07055 -0.0141,0.08467 0.0565,0.155222 0.11289,0.127 0,-0.01411 0.0141,0 0,0.02822 0,0.02822 0.0282,0.112889 0.0706,0.197556 0.0564,0.08467 0.0847,0.183444 0.0847,0.225777 0.0141,0.07056 0.0141,0.08467 0.0847,0.08467 0.0847,0.01411 0.16933,0.09878 0.16933,0.169333 0,0.02822 0.0141,0.04233 0.0282,0.04233 0.0423,0 0.0282,0.07056 -0.0282,0.09878 -0.0423,0.02822 -0.0423,0.02822 0,0.02822 0.0282,0 0.0423,0.01411 0.0282,0.04233 0,0.01411 0,0.05644 0.0141,0.08467 0.0141,0.04233 0.0141,0.112889 0.0141,0.155222 -0.0141,0.07056 -0.0282,0.08467 -0.0706,0.07056 -0.0423,-0.01411 -0.0423,-0.01411 -0.0141,0.02822 0.0282,0.05644 -0.0141,0.183444 -0.0564,0.183444 0,0 -0.0282,0.02822 -0.0282,0.07056 -0.0141,0.02822 -0.0423,0.05644 -0.0564,0.05644 -0.0423,0 -0.0564,0.04233 -0.0141,0.07056 0.0141,0.01411 0,0.05644 -0.0564,0.127 -0.0423,0.04233 -0.0565,0.09878 -0.0423,0.09878 0.0423,0.02822 0.0282,0.09878 -0.0282,0.08467 -0.0282,0 -0.0423,0.01411 -0.0423,0.07055 0,0.155222 -0.0141,0.197556 -0.0423,0.197556 -0.0282,0 -0.0564,0.01411 -0.0705,0.04233 -0.0282,0.02822 -0.0282,0.04233 0,0.05644 0.0282,0.02822 0.0282,0.04233 -0.0141,0.07056 -0.0564,0.04233 -0.0564,0.05644 -0.0282,0.08467 0.0282,0.01411 0.0423,0.05644 0.0423,0.08467 0,0.04233 -0.0141,0.04233 -0.0565,0.04233 -0.0847,-0.01411 -0.11288,0.04233 -0.0564,0.07056 0.0564,0.04233 0.0282,0.127 -0.0282,0.127 -0.0564,0.01411 -0.0564,0.02822 -0.0564,0.112889 0,0.08467 0,0.08467 -0.0564,0.08467 -0.0564,-0.01411 -0.0847,0.05644 -0.0282,0.08467 0.0423,0.02822 0.0282,0.05644 -0.0141,0.05644 -0.0141,0 -0.0423,0.02822 -0.0564,0.05645 -0.0282,0.02822 -0.0282,0.05644 0,0.05644 0.0141,0 0.0141,0.01411 0.0141,0.04233 0,0.02822 0,0.02822 -0.0282,0 -0.0423,-0.02822 -0.0423,-0.01411 -0.0706,0.04233 -0.0141,0.02822 -0.0282,0.09878 -0.0423,0.155222 0,0.04233 -0.0282,0.112889 -0.0564,0.155222 -0.0565,0.07055 -0.0706,0.127 -0.0141,0.155222 0.0141,0 0.0423,0.02822 0.0423,0.05644 0,0.02822 -0.0141,0.02822 -0.0282,0.01411 -0.0282,-0.05644 -0.127,0 -0.127,0.08467 0,0.02822 -0.0141,0.07056 -0.0282,0.07056 -0.0141,0.01411 -0.0141,0.02822 0.0141,0.05644 0.0423,0.02822 0.0423,0.02822 -0.0141,0.02822 -0.0564,0 -0.0564,0.01411 -0.0282,0.07056 0.0564,0.07055 0.0282,0.169333 -0.0564,0.225777 -0.0423,0.01411 -0.0988,0.07056 -0.11289,0.09878 -0.0141,0.05644 -0.0141,0.08467 0.0423,0.127 0.0564,0.04233 0.0564,0.04233 0.0141,0.04233 -0.0282,0.01411 -0.0423,0.01411 -0.0282,0.05644 0.0141,0.02822 0,0.112888 -0.0141,0.169333 -0.0282,0.09878 -0.0423,0.112889 -0.0988,0.09878 -0.0423,-0.01411 -0.0564,0 -0.0564,0.04233 0,0.02822 -0.0141,0.05644 -0.0282,0.07055 -0.0423,0.04233 -0.0564,0.155222 -0.0282,0.155222 0.0282,0 0.0282,0.02822 0.0141,0.112889 0,0 -0.0282,-0.01411 -0.0423,-0.04233 -0.0423,-0.04233 -0.0423,-0.04233 -0.0423,0 0,0.02822 -0.0141,0.08467 -0.0423,0.127 -0.0141,0.04233 -0.0282,0.09878 -0.0282,0.127 0,0.04233 0,0.04233 0.0564,0 0.0423,-0.04233 0.0564,-0.04233 0.0282,0 0,0.02822 -0.0141,0.07056 -0.0141,0.112888 0,0.05644 0,0.05644 -0.0282,0.04233 -0.0423,-0.05644 -0.0706,-0.04233 -0.0847,0.01411 0,0.01411 0.0141,0.05644 0.0423,0.07055 0.0282,0.02822 0.0282,0.02822 0,0.05645 -0.0282,0.02822 -0.0423,0.02822 -0.0564,0 -0.0141,-0.02822 -0.0282,-0.01411 -0.0282,0.04233 0,0.04233 0,0.09878 -0.0141,0.141111 -0.0141,0.05644 -0.0141,0.05644 0.0282,0.01411 0.0282,-0.04233 0.0423,-0.04233 0.0282,-0.01411 0,0.01411 0.0141,0.05644 0.0282,0.07056 0.0141,0.01411 0.0423,0.08467 0.0423,0.141111 0,0.155222 0.0282,0.310444 0.0423,0.26811 0.0141,-0.01411 0.0705,-0.02822 0.14111,-0.02822 0.14111,0 0.19755,0.05644 0.18344,0.155222 -0.0423,0.155222 -0.0423,0.268111 -0.0141,0.268111 0.0141,0 0.0282,0.01411 0.0282,0.02822 0,0.01411 0.0141,0.04233 0.0282,0.07056 v 0 c 0.0423,0.04233 0.11289,0.02822 0.15522,-0.02822 0.0282,-0.02822 0.0705,-0.04233 0.0847,-0.04233 0.0282,0.01411 0.0847,0.02822 0.15522,0.02822 0.0564,0.01411 0.11289,0.02822 0.14111,0.04233 0.0282,0.04233 0.0847,-0.01411 0.0705,-0.07056 -0.0141,-0.02822 0.0282,-0.07055 0.32456,-0.26811 0.0988,-0.07056 0.254,-0.197556 0.33867,-0.268111 0.22577,-0.211667 0.55033,-0.508 0.60677,-0.550333 0.0706,-0.04233 0.14111,-0.127 0.14111,-0.169333 0,-0.01411 0.0282,-0.04233 0.0564,-0.04233 0.0705,-0.02822 0.28222,-0.225777 0.28222,-0.268111 0,-0.02822 0.0141,-0.02822 0.0282,-0.02822 0.0141,0.01411 0.0706,-0.02822 0.127,-0.09878 0.0564,-0.05644 0.11289,-0.112888 0.127,-0.09878 0.0141,0.01411 0.0282,0 0.0282,-0.01411 0,-0.01411 0.0141,-0.01411 0.0282,-0.01411 0.0141,0.01411 0.0141,0 0,-0.01411 0,-0.02822 0.0988,-0.141111 0.28222,-0.338666 0.16933,-0.155222 0.31044,-0.296333 0.31044,-0.296333 0,-0.02822 0.29634,-0.324555 0.36689,-0.381 0.0282,-0.01411 0.0564,-0.05644 0.0564,-0.07055 0,-0.04233 0.15522,-0.169333 0.21166,-0.169333 0.0141,0 0.0282,-0.01411 0.0423,-0.04233 0.0141,-0.04233 0.18344,-0.04233 0.18344,0 0,0.02822 0.0141,0.04233 0.0282,0.02822 0.0141,0 0.0282,0.01411 0.0282,0.05644 0,0.04233 0.0282,0.07055 0.0988,0.09878 0.0565,0.02822 0.11289,0.08467 0.127,0.112888 0.0141,0.02822 0.0564,0.07056 0.0988,0.08467 0.0564,0.02822 0.0847,0.05644 0.0423,0.08467 -0.0141,0.01411 -0.0282,0 -0.0423,-0.01411 0,-0.01411 -0.0282,-0.02822 -0.0564,-0.01411 -0.0423,0.01411 -0.0423,0.02822 0.0141,0.05644 0.0423,0.02822 0.0705,0.05644 0.0705,0.07055 0,0.01411 0.0282,0.01411 0.0423,0.01411 0.0282,0 0.0423,0 0.0141,-0.04233 -0.0282,-0.07055 -0.0282,-0.08467 0,-0.08467 0.0141,0 0.0423,0.02822 0.0564,0.07056 0.0141,0.02822 0.0423,0.05644 0.0706,0.05644 0.0141,0 0.0282,0.02822 0.0282,0.04233 0,0.02822 0.0282,0.04233 0.0705,0.05644 0.0565,0.01411 0.0847,0.02822 0.0847,0.05644 0,0.01411 0.0141,0.02822 0.0282,0.01411 0.0423,-0.01411 0.127,0.07055 0.15523,0.155222 0.0141,0.01411 0.0282,0.04233 0.0423,0.04233 0.0141,0 0.0847,0.02822 0.14111,0.07056 0.0564,0.04233 0.127,0.08467 0.127,0.08467 0.0141,0 0.0423,0.01411 0.0705,0.04233 0.0282,0.02822 0.0706,0.04233 0.0847,0.04233 0.0282,-0.01411 0.0423,0 0.0423,0.01411 0,0.01411 0.0141,0.02822 0.0423,0.02822 0.0141,0 0.0282,0 0.0282,0.01411 0,0.01411 0.0282,0.02822 0.0706,0.02822 0.0282,0 0.127,0.04233 0.21166,0.09878 0.19756,0.112889 0.23989,0.09878 0.0706,-0.01411 -0.0564,-0.05644 -0.11289,-0.08467 -0.0988,-0.09878 0,0 0.14111,0.07056 0.29633,0.155222 0.16934,0.09878 0.31045,0.169333 0.31045,0.169333 0.0141,0 0.0564,0.02822 0.11289,0.04233 0.0564,0.02822 0.0847,0.05644 0.0564,0.05644 -0.0141,0.01411 0.0423,0.02822 0.14111,0.02822 0.0847,0 0.21167,0.02822 0.28222,0.04233 0.11289,0.02822 0.14111,0.02822 0.15523,0 0.0282,-0.05644 -0.0141,-0.09878 -0.14112,-0.155222 z m -2.07433,-2.864554 c 0.0423,-0.08467 0.28223,-0.395111 0.28223,-0.366888 0,0.01411 -0.0423,0.08467 -0.0988,0.169333 -0.0564,0.08467 -0.11289,0.155222 -0.11289,0.169333 0,0.01411 -0.0141,0.04233 -0.0423,0.05644 -0.0564,0.02822 -0.0564,0.02822 -0.0282,-0.02822 z m 0.19756,0.903111 c 0.0141,0 0.0423,0.01411 0.0564,0.04233 v 0 c 0.0423,0.04233 0.0282,0.04233 -0.0423,0 -0.0282,-0.02822 -0.0282,-0.04233 -0.0141,-0.04233 z m -0.0565,-0.05644 c 0,0.01411 0,0.02822 0,0.02822 -0.0282,0 -0.14111,-0.112888 -0.14111,-0.126999 0,-0.02822 0.11289,0.04233 0.14111,0.09878 z m -0.16933,-0.127 c 0,0.02822 -0.0423,0 -0.14111,-0.112888 -0.0706,-0.05645 -0.11289,-0.112889 -0.11289,-0.127 0.0141,-0.01411 0.254,0.211666 0.254,0.239888 z m -1.41111,-7.986882 c 0.0141,0 0.0282,0.01411 0.0282,0.01411 0,0.01411 -0.0141,0.01411 -0.0282,0.01411 -0.0141,0 -0.0282,-0.01411 -0.0282,-0.02822 0,-0.01411 0.0141,-0.01411 0.0282,0 z m -3.20322,3.273775 c -0.0141,0 -0.0282,-0.01411 -0.0423,-0.02822 -0.0141,-0.01411 0,-0.02822 0.0141,-0.02822 0.0141,0 0.0282,0.01411 0.0423,0.02822 0,0.01411 0,0.02822 -0.0141,0.02822 z m 0.23989,0.733777 c -0.0141,0 -0.0141,-0.01411 -0.0141,-0.04233 0,-0.02822 0.0141,-0.02822 0.0141,-0.01411 0.0141,0.02822 0.0141,0.04233 0,0.05644 z m -0.127,-2.455331 c 0,0 -0.0141,0.01411 -0.0141,0.04233 0,0.02822 -0.0141,0.08467 -0.0282,0.112889 -0.0282,0.04233 -0.0282,0.05644 0,0.07056 0.0282,0.01411 0.0141,0.155222 -0.0423,0.366889 -0.0141,0.05644 -0.0282,0.197555 -0.0282,0.296333 0,0.112889 -0.0141,0.239889 -0.0141,0.296333 -0.0141,0.05644 -0.0423,0.08467 -0.0847,0.09878 -0.0423,0.01411 -0.0423,0 -0.0564,-0.254 0,-0.169333 0,-0.282222 0.0141,-0.282222 0.0141,-0.01411 0.0423,-0.05644 0.0423,-0.09878 0.0282,-0.07055 0.0141,-0.07055 -0.0141,-0.04233 -0.0564,0.04233 -0.0847,0 -0.0564,-0.05644 0.0141,-0.01411 0.0564,-0.127 0.0988,-0.239889 0.0423,-0.112889 0.0988,-0.254 0.127,-0.324555 0.0423,-0.07056 0.0564,-0.141111 0.0564,-0.141111 -0.0141,-0.01411 -0.0282,0 -0.0423,0.01411 0,0.01411 -0.0282,0.02822 -0.0564,0.04233 -0.0423,0.01411 -0.0423,0 -0.0282,-0.05644 0.0282,-0.112889 0.14111,-0.169334 0.14111,-0.07056 0,0.05644 0,0.05644 0.0282,0 0.0141,-0.02822 0.0564,-0.08467 0.0706,-0.141111 0.0423,-0.09878 0.18344,-0.254 0.14111,-0.169333 -0.0564,0.169333 -0.22578,0.536222 -0.254,0.536222 z m 0.23989,-0.211667 c 0,-0.01411 0.0141,-0.05644 0.0282,-0.07056 0.0141,-0.02822 0.0282,-0.02822 0.0282,-0.01411 -0.0141,0.04233 -0.0564,0.126999 -0.0564,0.08467 z m 0.26811,3.654775 c -0.0141,-0.02822 0,-0.04233 0.0282,-0.01411 0.0282,0.02822 0.0423,0.04233 0.0423,0.04233 0,0.02822 -0.0564,0.01411 -0.0706,-0.02822 z m -1.29822,6.124218 c -0.0141,0 -0.0282,-0.01411 -0.0423,-0.02822 -0.0282,-0.04233 -0.0282,-0.04233 0,-0.04233 0.0282,0 0.0423,0.01411 0.0423,0.04233 0,0.01411 0,0.02822 0,0.02822 z m 0.40922,0.39511 c -0.0423,0 -0.0564,-0.169333 -0.0141,-0.197555 0.0141,-0.01411 0.0141,0.02822 0.0141,0.08467 0,0.05644 0,0.112888 0,0.112888 z m -0.0141,-0.324555 c 0,-0.02822 0.0705,-0.08467 0.0847,-0.05644 0.0141,0 -0.0141,0.02822 -0.0423,0.05644 -0.0423,0.04233 -0.0423,0.04233 -0.0423,0 z m 3.27377,-7.140217 c -0.0141,0.02822 -0.0141,0.04233 -0.0141,0.05644 0.0141,0.01411 0.0141,0.02822 0,0.04233 -0.0282,0.02822 -0.254,0.578555 -0.26811,0.663222 -0.0141,0.01411 -0.0423,0.09878 -0.0706,0.169333 -0.0282,0.08467 -0.0564,0.169333 -0.0706,0.197555 -0.0141,0.04233 -0.0282,0.04233 -0.0705,0.01411 -0.0423,-0.01411 -0.0423,-0.127 0,-0.127 0.0141,0 0.0141,-0.01411 0,-0.01411 0,-0.01411 0.0141,-0.04233 0.0423,-0.08467 0.0423,-0.07056 0.35278,-0.776111 0.35278,-0.832555 0,-0.04233 0.0988,-0.155222 0.127,-0.141111 0,0.01411 0,0.02822 -0.0282,0.05644 z m -0.79022,-4.586107 c 0.0141,0 0.0282,0.01411 0.0141,0.02822 -0.0141,0.01411 -0.0141,0.02822 -0.0282,0.02822 0,0 -0.0141,-0.01411 -0.0141,-0.02822 0,-0.01411 0.0141,-0.02822 0.0282,-0.02822 z m -0.0847,0.211666 c 0.0423,0 0.0423,0 0,0.04233 v 0 c -0.0706,0.04233 -0.14111,0.04233 -0.0988,0 0.0282,-0.02822 0.0564,-0.04233 0.0988,-0.04233 z m -0.0988,-0.141111 c 0.0141,-0.01411 0.0282,0 0.0282,0.01411 -0.0141,0.04233 -0.0705,0.05644 -0.0705,0.02822 0,-0.01411 0.0141,-0.02822 0.0423,-0.04233 z m -0.15522,0.08467 c 0.0141,-0.04233 0.0423,-0.02822 0.0423,0.01411 0,0.02822 0,0.04233 0,0.04233 0,0 -0.0141,-0.01411 -0.0282,-0.01411 -0.0141,-0.01411 -0.0282,-0.02822 -0.0141,-0.04233 z m -0.0423,0.183444 c 0.0282,0 0.0564,-0.01411 0.0847,-0.04233 0.0141,-0.01411 0.0423,-0.02822 0.0564,-0.01411 0,0.01411 -0.0141,0.04233 -0.0564,0.07055 -0.0706,0.04233 -0.0988,0.04233 -0.127,0.01411 -0.0141,-0.01411 0.0141,-0.02822 0.0423,-0.02822 z m -0.70555,0.324556 c 0.0141,-0.02822 0.0141,-0.04233 0.0282,-0.04233 0,0 0,0.01411 0,0.04233 0,0.01411 0,0.02822 -0.0141,0.02822 -0.0141,0 -0.0282,-0.01411 -0.0141,-0.02822 z m -0.0282,0.296333 c 0.0141,-0.01411 0.0282,-0.02822 0.0423,-0.02822 0.0282,0 0.19755,-0.155222 0.18344,-0.155222 0,-0.01411 0.254,-0.211666 0.31045,-0.225777 0.0423,-0.02822 -0.22578,0.239888 -0.36689,0.352777 -0.15522,0.112889 -0.18345,0.127 -0.16933,0.05644 z m 0,1.354665 c 0.0423,-0.02822 0.0423,-0.02822 0.0282,0.01411 0,0.02822 -0.0141,0.05644 -0.0282,0.05644 -0.0564,0.01411 -0.0423,-0.02822 0,-0.07056 z m -0.0988,-1.53811 c 0,-0.01411 0.0141,-0.02822 0.0282,-0.02822 0,0 0,0.01411 0,0.02822 0,0.01411 0,0.02822 -0.0282,0.02822 -0.0141,0 -0.0141,-0.01411 0,-0.02822 z m -0.0282,0.254 c 0,-0.01411 0.0141,-0.02822 0.0282,-0.02822 0,0 0.0141,0.01411 0.0141,0.02822 0,0.01411 -0.0141,0.02822 -0.0282,0.02822 -0.0141,0 -0.0282,-0.01411 -0.0141,-0.02822 z m -0.0847,4.896552 c -0.0141,-0.05644 -0.0141,-0.05644 0.0141,-0.05644 0.0141,0.01411 0.0282,0.04233 0.0282,0.07055 0,0.05644 0,0.05644 -0.0423,-0.01411 z m 0.0847,-3.20322 c -0.0141,0 0,-0.112889 0.0423,-0.225777 0.0282,-0.09878 0.0423,-0.05645 0.0141,0.09878 -0.0141,0.07056 -0.0423,0.127 -0.0564,0.127 z m 0.0847,0.493889 c 0.0282,0 0.0282,-0.05644 0.0141,-0.141111 -0.0141,-0.08467 0,-0.127 0.0141,-0.169334 0.0282,-0.01411 0.0423,-0.08467 0.0423,-0.141111 0,-0.05644 0.0141,-0.112888 0.0423,-0.126999 0.0141,-0.01411 0.0141,-0.05644 0.0141,-0.08467 0,-0.02822 0.0282,-0.08467 0.0423,-0.127 0.0282,-0.02822 0.0423,-0.08467 0.0423,-0.112889 0,-0.02822 0.0141,-0.05644 0.0282,-0.05644 0.0282,0 0.0564,-0.02822 0.0564,-0.07056 0.0141,-0.02822 0.0423,-0.08467 0.0564,-0.09878 0.0141,-0.02822 0.0282,-0.07056 0.0423,-0.08467 0.0141,-0.02822 0.0282,-0.04233 0.0564,-0.04233 0.0282,0 0.0423,-0.01411 0.0423,-0.02822 0,-0.04233 0.32456,-0.395111 0.43745,-0.479778 0.0564,-0.02822 0.0705,-0.05644 0.0705,-0.09878 -0.0141,-0.01411 -0.0141,-0.04233 0,-0.02822 0.0141,0.01411 0.0423,0 0.0706,-0.01411 0.0282,-0.01411 0.0847,-0.02822 0.11288,-0.04233 0.0423,0 0.0706,-0.02822 0.0706,-0.04233 0,-0.02822 0.0282,-0.04233 0.0564,-0.04233 0.0282,0 0.0564,-0.01411 0.0564,-0.02822 0.0141,0 0.0564,-0.01411 0.0988,-0.01411 0.0423,0 0.0705,0 0.0705,-0.02822 0,-0.05645 0.127,-0.09878 0.16934,-0.05645 0.0423,0.02822 0.0564,0.01411 0.0423,-0.02822 0,-0.04233 0.0706,-0.02822 0.11289,0.02822 0.0423,0.04233 0.0564,0.09878 0.0564,0.225778 0.0141,0.197555 -0.0141,0.423333 -0.0423,0.395111 -0.0282,-0.01411 -0.0706,0.112889 -0.0423,0.141111 0.0141,0.01411 0,0.04233 -0.0141,0.07056 -0.0282,0.02822 -0.0423,0.04233 -0.0423,0.01411 0,-0.04233 -0.0564,-0.02822 -0.0564,0.01411 0,0.01411 0.0141,0.02822 0.0282,0.02822 0.0423,0 0.0282,0.112888 -0.0423,0.239888 -0.0282,0.05644 -0.0706,0.169334 -0.0847,0.239889 -0.0282,0.07056 -0.0564,0.127 -0.0706,0.141111 -0.0141,0 -0.0282,0.04233 -0.0282,0.08467 0,0.02822 -0.0282,0.09878 -0.0564,0.127 -0.0282,0.02822 -0.0564,0.08467 -0.0706,0.126999 0,0.02822 -0.0423,0.112889 -0.0705,0.183445 -0.0282,0.07055 -0.0988,0.211666 -0.127,0.296333 -0.0423,0.08467 -0.127,0.268111 -0.21167,0.423333 -0.0706,0.155222 -0.16933,0.366888 -0.21167,0.451555 -0.11289,0.254 -0.127,0.268111 -0.127,0.141111 0,-0.05644 -0.0141,-0.112889 -0.0282,-0.112889 -0.0141,0 -0.0423,-0.01411 -0.0423,-0.04233 -0.0141,-0.02822 -0.0423,-0.07056 -0.0706,-0.08467 -0.0141,-0.02822 -0.0423,-0.07056 -0.0423,-0.112888 0,-0.112889 -0.0706,-0.268111 -0.127,-0.268111 -0.0282,0 -0.0564,0 -0.0564,0.01411 -0.0141,0.01411 0.0423,0.155222 0.127,0.310444 0.0706,0.169333 0.127,0.310444 0.127,0.324555 0,0.05644 -0.0706,0.01411 -0.0847,-0.04233 -0.0141,-0.02822 -0.0847,-0.197555 -0.18345,-0.381 -0.254,-0.564444 -0.32455,-0.747888 -0.26811,-0.790221 z m 1.41111,2.751664 c -0.0141,0.01411 -0.0141,0.01411 -0.0282,0 -0.0282,-0.04233 0,-0.08467 0.0282,-0.05644 0,0.01411 0,0.02822 0,0.05644 z m -0.45155,1.340555 c 0,0.01411 -0.0141,0.04233 -0.0423,0.07055 -0.0282,0.04233 -0.0282,0.02822 -0.0705,-0.02822 -0.0423,-0.05644 -0.0423,-0.05644 -0.0141,-0.07055 0.0564,-0.01411 0.127,0 0.127,0.02822 z m -0.0847,-2.652887 c 0.0141,0 0.0282,0 0.0282,0.01411 0,0.01411 0,0.02822 -0.0141,0.02822 0,0 -0.0141,-0.01411 -0.0282,-0.02822 0,-0.01411 0,-0.01411 0.0141,-0.01411 z m -0.254,-0.07056 c 0,0.02822 -0.0141,0.04233 -0.0282,0.04233 -0.0282,0 -0.0564,-0.08467 -0.0423,-0.09878 0.0282,-0.02822 0.0705,0.01411 0.0705,0.05644 z m -0.11289,0.197556 c -0.0141,0.02822 -0.29633,-0.536222 -0.31044,-0.635 l -0.0141,-0.07056 0.0282,0.07056 c 0.0141,0.04233 0.0423,0.09878 0.0564,0.112889 0.0282,0.02822 0.0847,0.141111 0.14111,0.268111 0.0706,0.127 0.11289,0.239889 0.0988,0.254 z m -0.28222,4.741329 c -0.0141,0.02822 -0.0282,0.07056 -0.0423,0.09878 0,0.02822 -0.0141,0.08467 -0.0423,0.127 -0.0706,0.09878 -0.11289,0.08467 -0.0988,-0.04233 0.0141,-0.04233 0.0282,-0.09878 0.0423,-0.112889 0,-0.01411 0.0282,-0.08467 0.0423,-0.169333 0.0141,-0.07056 0.0423,-0.169333 0.0706,-0.211667 0.0141,-0.04233 0.0423,-0.127 0.0564,-0.183444 0.0141,-0.05644 0.0564,-0.169333 0.0847,-0.254 0.127,-0.395111 0.28222,-0.874888 0.28222,-0.917221 0,-0.02822 0.0141,-0.05645 0.0282,-0.07056 0.0141,0 0.0282,-0.02822 0.0282,-0.05644 0,-0.02822 0,-0.07056 0.0141,-0.09878 0.0141,-0.02822 0.0282,-0.07055 0.0423,-0.09878 l 0.0282,-0.07055 0.0565,0.07055 c 0.0564,0.05645 0.0564,0.05645 0.0141,0.155222 -0.0141,0.05644 -0.0564,0.169334 -0.0847,0.254 -0.0141,0.08467 -0.0564,0.183445 -0.0706,0.211667 -0.0141,0.02822 -0.0423,0.127 -0.0706,0.225777 -0.0282,0.09878 -0.0564,0.197556 -0.0564,0.211667 -0.0141,0.01411 -0.0423,0.07056 -0.0564,0.141111 -0.0141,0.05644 -0.0423,0.155222 -0.0705,0.197555 -0.0141,0.05644 -0.0564,0.197556 -0.0988,0.324556 -0.0423,0.126999 -0.0847,0.253999 -0.0988,0.26811 z m 1.38289,-1.28411 c -0.21167,0.211667 -0.23989,0.254 -0.23989,0.282222 0,0.01411 -0.0141,0.02822 -0.0282,0.02822 -0.0282,0 -0.11289,0.08467 -0.19756,0.169333 -0.33866,0.366888 -0.49389,0.507999 -0.57855,0.578555 -0.0423,0.02822 -0.0847,0.08467 -0.0988,0.112889 -0.0141,0.04233 -0.0423,0.07055 -0.0564,0.07055 -0.0141,0 -0.0141,-0.02822 -0.0141,-0.05644 0.0141,-0.01411 0.0282,-0.07056 0.0423,-0.112889 0,-0.02822 0.0141,-0.05644 0.0282,-0.05644 0.0141,0.01411 0.0282,0 0.0423,-0.01411 0,-0.01411 0,-0.02822 -0.0141,-0.04233 -0.0282,0 -0.0282,-0.01411 0,-0.04233 0.0141,-0.02822 0.0141,-0.05644 0,-0.09878 -0.0282,-0.04233 -0.0282,-0.05644 0.0141,-0.08467 0.0282,-0.02822 0.0423,-0.05644 0.0282,-0.08467 -0.0141,-0.04233 0,-0.07056 0.0423,-0.08467 0.0423,-0.02822 0.0423,-0.04233 0.0282,-0.127 -0.0141,-0.07056 0,-0.09878 0.0282,-0.112888 0.0141,0 0.0282,-0.02822 0.0282,-0.04233 -0.0141,-0.01411 -0.0141,-0.04233 0,-0.07055 0.0141,-0.01411 0.0423,-0.07056 0.0564,-0.09878 0.0141,-0.02822 0.0282,-0.127 0.0564,-0.225777 0.0141,-0.09878 0.0423,-0.197556 0.0706,-0.225778 0.0141,-0.02822 0.0423,-0.07056 0.0282,-0.112889 0,-0.112889 0.0706,-0.155222 0.0988,-0.08467 0.0141,0.02822 0.0423,0.05644 0.0705,0.05644 0.0141,0 0.0564,0.02822 0.0706,0.08467 0.0423,0.08467 0.0847,0.112888 0.16933,0.112888 0.0706,0 0.0706,-0.01411 0.0141,-0.09878 -0.0282,-0.02822 -0.0564,-0.05645 -0.0988,-0.04233 -0.0282,0.01411 -0.0423,0 -0.0282,-0.02822 0.0141,-0.02822 0,-0.07055 -0.0282,-0.08467 -0.0705,-0.05644 -0.14111,-0.169334 -0.14111,-0.239889 v -0.05645 l 0.0988,0.07056 c 0.15522,0.141111 0.18344,0.169333 0.18344,0.211666 0,0.02822 0.0282,0.04233 0.0564,0.04233 0.0282,0 0.0423,0.01411 0.0423,0.04233 0,0.01411 0.0423,0.07056 0.0847,0.112889 0.0423,0.04233 0.0705,0.09878 0.0564,0.112889 -0.0141,0.02822 0,0.02822 0.0282,0.02822 0.0564,-0.02822 0.0706,0.02822 0.0141,0.05644 -0.0282,0.01411 -0.0423,0.02822 -0.0423,0.01411 0,-0.01411 -0.0423,-0.05644 -0.0847,-0.08467 l -0.0706,-0.05645 -0.0141,0.07056 c -0.0141,0.07055 0.0847,0.211666 0.14111,0.211666 0.0282,0 0.0564,-0.02822 0.0705,-0.05644 0.0282,-0.05644 0.0423,-0.07056 0.0564,-0.04233 0.0282,0.01411 0.0423,0.02822 0.0564,0.01411 0,0 -0.0282,0.02822 -0.0705,0.08467 z m 3.75355,1.961443 c -0.0141,0.01411 -0.0282,0.01411 -0.0282,0.01411 -0.0141,0 -0.0141,0 -0.0141,-0.01411 0,-0.01411 0.0141,-0.02822 0.0282,-0.02822 0.0141,0 0.0141,0.01411 0.0141,0.02822 z"
         id="text2-2-4-2"
         style="font-size:14.1111px;font-family:Brafesuit;-inkscape-font-specification:Brafesuit;text-align:center;letter-spacing:0px;word-spacing:0px;text-anchor:middle;white-space:pre;inline-size:25.7717;stroke-width:0.05;stroke-miterlimit:7;paint-order:markers fill stroke"
         transform="translate(-19.127902,7.5268596)"
         aria-label="&amp;" />
      <text
         xml:space="preserve"
         style="font-style:normal;font-variant:normal;font-weight:normal;font-stretch:normal;font-size:14.1111px;font-family:Brafesuit;-inkscape-font-specification:Brafesuit;text-align:center;letter-spacing:0px;word-spacing:0px;text-anchor:middle;opacity:1;fill:#ffffff;fill-opacity:1;stroke:none;stroke-width:0.05;stroke-miterlimit:7;stroke-dasharray:none;stroke-opacity:1;paint-order:markers fill stroke"
         x="101.26509"
         y="48.025074"
         id="text3-3-3-8"><tspan
           sodipodi:role="line"
           id="tspan3-1-0-3"
           style="font-size:14.1111px;fill:#ffffff;fill-opacity:1;stroke:none;stroke-width:0.05;stroke-dasharray:none;stroke-opacity:1"
           x="101.26509"
           y="48.025074">White</tspan></text>
    </g>
  </g>
</svg>
